<svg width="20" height="20" viewBox="0 0 20 20" fill="none" xmlns="http://www.w3.org/2000/svg">
<path fill-rule="evenodd" clip-rule="evenodd" d="M18 10C18 14.418 14.418 18 10 18C5.582 18 2 14.418 2 10C2 5.582 5.582 2 10 2C14.418 2 18 5.582 18 10ZM13.7071 8.29289C13.3166 7.90237 12.6834 7.90237 12.2929 8.29289L10 10.5858L7.70711 8.29289C7.31658 7.90237 6.68342 7.90237 6.29289 8.29289C5.90237 8.68342 5.90237 9.31658 6.29289 9.70711L9.29289 12.7071C9.68342 13.0976 10.3166 13.0976 10.7071 12.7071L13.7071 9.70711C14.0976 9.31658 14.0976 8.68342 13.7071 8.29289Z" fill="#5C5F62"/>
</svg>
