<svg width="145" height="150" viewBox="0 0 145 150" fill="none" xmlns="http://www.w3.org/2000/svg">
<path d="M105.815 43.1812H90.1899V71.6352H105.815V43.1812Z" fill="#17DBA7"/>
<path fill-rule="evenodd" clip-rule="evenodd" d="M120.398 48.8086C120.847 48.8086 121.212 49.1721 121.212 49.6205V70.8052C121.212 71.2536 120.847 71.6171 120.398 71.6171C119.948 71.6171 119.584 71.2536 119.584 70.8052V49.6205C119.584 49.1721 119.948 48.8086 120.398 48.8086Z" fill="#160925"/>
<path fill-rule="evenodd" clip-rule="evenodd" d="M28.5224 130.017C28.972 130.017 29.3364 130.38 29.3364 130.829V137.599C29.3364 142.239 33.1175 146.009 37.7725 146.009H112.065C112.514 146.009 112.879 146.373 112.879 146.821C112.879 147.269 112.514 147.633 112.065 147.633H37.7725C32.2191 147.633 27.7084 143.137 27.7084 137.599V130.829C27.7084 130.38 28.0728 130.017 28.5224 130.017Z" fill="#160925"/>
<path fill-rule="evenodd" clip-rule="evenodd" d="M7.33492 1.62382C4.29907 1.62382 1.62806 4.55882 1.62806 8.45503V54.023C1.62806 54.4714 1.2636 54.8349 0.814029 54.8349C0.364453 54.8349 0 54.4714 0 54.023V8.45503C0 3.91888 3.16237 0 7.33492 0H113.878C118.05 0 121.212 3.91888 121.212 8.45503V43.1814C121.212 43.6298 120.848 43.9933 120.398 43.9933C119.949 43.9933 119.584 43.6298 119.584 43.1814V8.45503C119.584 4.55882 116.913 1.62382 113.878 1.62382H7.33492Z" fill="#160925"/>
<path fill-rule="evenodd" clip-rule="evenodd" d="M0.814029 63.3882C1.2636 63.3882 1.62806 63.7517 1.62806 64.2001V73.9201C1.62806 74.3685 1.2636 74.7321 0.814029 74.7321C0.364453 74.7321 0 74.3685 0 73.9201V64.2001C0 63.7517 0.364453 63.3882 0.814029 63.3882Z" fill="#160925"/>
<path fill-rule="evenodd" clip-rule="evenodd" d="M0.814029 84.8223C1.2636 84.8223 1.62806 85.1858 1.62806 85.6342V122.77C1.62806 126.666 4.29907 129.601 7.33492 129.601H74.9814C75.4309 129.601 75.7954 129.964 75.7954 130.413C75.7954 130.861 75.4309 131.225 74.9814 131.225H7.33492C3.16237 131.225 0 127.306 0 122.77V85.6342C0 85.1858 0.364453 84.8223 0.814029 84.8223Z" fill="#160925"/>
<path fill-rule="evenodd" clip-rule="evenodd" d="M100.787 84.9781C99.5332 84.74 98.2554 84.64 96.9727 84.66C96.5232 84.667 96.1531 84.3092 96.1461 83.8609C96.1391 83.4125 96.4978 83.0434 96.9473 83.0364C98.3314 83.0148 99.7203 83.1225 101.091 83.3829C101.533 83.4668 101.823 83.8918 101.739 84.3323C101.655 84.7728 101.229 85.0619 100.787 84.9781Z" fill="#160925"/>
<path fill-rule="evenodd" clip-rule="evenodd" d="M91.1372 84.824C91.2985 85.2426 91.0891 85.7123 90.6695 85.8732C88.3386 86.7669 86.1642 88.1581 84.2862 90.0304L84.2854 90.0312C77.0851 97.1894 77.1024 108.825 84.287 116.007C91.4675 123.186 103.14 123.168 110.345 116.006C117.546 108.847 117.547 97.2115 110.344 90.0304C110.026 89.7134 110.026 89.1993 110.344 88.8822C110.661 88.565 111.177 88.5649 111.495 88.8819C119.333 96.6963 119.334 109.361 111.494 117.156C103.657 124.947 90.954 124.971 83.1344 117.154C75.3188 109.341 75.2945 96.6769 83.1359 88.8812C85.1744 86.8492 87.5414 85.3329 90.0853 84.3575C90.5049 84.1966 90.9759 84.4055 91.1372 84.824Z" fill="#160925"/>
<path fill-rule="evenodd" clip-rule="evenodd" d="M74.4473 80.2205C87.0777 67.629 107.551 67.629 120.182 80.2205C130.733 90.7388 132.463 106.717 125.398 119.025L141.953 135.529C145.271 138.837 145.271 144.21 141.976 147.517L141.972 147.521C138.635 150.825 133.246 150.828 129.927 147.519L113.371 131.014C101.006 138.059 84.9985 136.334 74.4473 125.815C61.8166 113.224 61.8166 92.8123 74.4473 80.2205ZM119.031 81.369C107.036 69.4112 87.5929 69.4112 75.5982 81.369C63.6037 93.3266 63.6037 112.709 75.5982 124.667C85.7652 134.803 101.271 136.342 113.085 129.3C113.405 129.11 113.814 129.16 114.078 129.423L131.078 146.371C133.758 149.043 138.118 149.047 140.822 146.371C143.484 143.697 143.484 139.351 140.802 136.678L123.802 119.73C123.538 119.467 123.487 119.058 123.679 118.738C130.742 106.983 129.198 91.5048 119.031 81.369Z" fill="#160925"/>
<path d="M30.3353 70.6387H14.7102V115.708H30.3353V70.6387Z" fill="#17DBA7"/>
<path fill-rule="evenodd" clip-rule="evenodd" d="M33.4604 81.3755C33.91 81.3755 34.2744 81.739 34.2744 82.1874V84.7835C34.2744 85.2319 33.91 85.5955 33.4604 85.5955C33.0108 85.5955 32.6464 85.2319 32.6464 84.7835V82.1874C32.6464 81.739 33.0108 81.3755 33.4604 81.3755Z" fill="#160925"/>
<path fill-rule="evenodd" clip-rule="evenodd" d="M32.6464 61.9169C32.6464 61.4685 33.0108 61.105 33.4604 61.105H49.0855C49.5351 61.105 49.8996 61.4685 49.8996 61.9169V115.709C49.8996 116.158 49.5351 116.521 49.0855 116.521H33.4604C33.0108 116.521 32.6464 116.158 32.6464 115.709V91.0355C32.6464 90.5871 33.0108 90.2236 33.4604 90.2236C33.91 90.2236 34.2744 90.5871 34.2744 91.0355V114.898H48.2715V62.7288H34.2744V76.5593C34.2744 77.0077 33.91 77.3712 33.4604 77.3712C33.0108 77.3712 32.6464 77.0077 32.6464 76.5593V61.9169Z" fill="#160925"/>
<path d="M36.5854 112.385V65.2383L45.9605 112.385H36.5854Z" fill="#F2F2F2"/>
<path fill-rule="evenodd" clip-rule="evenodd" d="M70.98 56.89C70.98 56.4416 71.3444 56.0781 71.794 56.0781H87.4191C87.8687 56.0781 88.2332 56.4416 88.2332 56.89V72.6747C88.2332 73.1232 87.8687 73.4867 87.4191 73.4867C86.9696 73.4867 86.6051 73.1232 86.6051 72.6747V57.7019H72.608V72.9032C72.608 73.3516 72.2436 73.7151 71.794 73.7151C71.3444 73.7151 70.98 73.3516 70.98 72.9032V56.89Z" fill="#160925"/>
<path d="M55.3359 112.386V54.647L64.711 112.386H55.3359Z" fill="#F2F2F2"/>
<path fill-rule="evenodd" clip-rule="evenodd" d="M56.3342 50.9086C56.3342 50.4602 56.6987 50.0967 57.1483 50.0967H67.8359C68.2854 50.0967 68.6499 50.4602 68.6499 50.9086V83.2672C68.6499 83.7156 68.2854 84.0791 67.8359 84.0791C67.3863 84.0791 67.0218 83.7156 67.0218 83.2672V51.7205H57.1483C56.6987 51.7205 56.3342 51.357 56.3342 50.9086Z" fill="#160925"/>
<path fill-rule="evenodd" clip-rule="evenodd" d="M51.3962 50.9086C51.3962 50.4602 51.7607 50.0967 52.2103 50.0967H53.7311C54.1807 50.0967 54.5451 50.4602 54.5451 50.9086C54.5451 51.357 54.1807 51.7205 53.7311 51.7205H53.0243V114.855H62.4812C62.9308 114.855 63.2952 115.219 63.2952 115.667C63.2952 116.116 62.9308 116.479 62.4812 116.479H52.2103C51.7607 116.479 51.3962 116.116 51.3962 115.667V50.9086Z" fill="#160925"/>
<path d="M85.3974 37.7814C88.0438 37.7814 90.1891 35.6427 90.1891 33.0045C90.1891 30.3663 88.0438 28.2275 85.3974 28.2275C82.751 28.2275 80.6057 30.3663 80.6057 33.0045C80.6057 35.6427 82.751 37.7814 85.3974 37.7814Z" fill="#17DBA7"/>
<path d="M65.8151 28.2267C68.4615 28.2267 70.6069 26.088 70.6069 23.4498C70.6069 20.8116 68.4615 18.6729 65.8151 18.6729C63.1688 18.6729 61.0234 20.8116 61.0234 23.4498C61.0234 26.088 63.1688 28.2267 65.8151 28.2267Z" fill="#17DBA7"/>
<path d="M33.3139 52.7355C35.9603 52.7355 38.1056 50.5968 38.1056 47.9586C38.1056 45.3203 35.9603 43.1816 33.3139 43.1816C30.6675 43.1816 28.5222 45.3203 28.5222 47.9586C28.5222 50.5968 30.6675 52.7355 33.3139 52.7355Z" fill="#17DBA7"/>
<path fill-rule="evenodd" clip-rule="evenodd" d="M23.736 42.6546C23.9962 42.3499 24.4403 42.2798 24.7821 42.4895L27.4905 44.1511C27.8734 44.386 27.9929 44.8861 27.7574 45.268C27.5218 45.6499 27.0205 45.7691 26.6375 45.5342L24.5232 44.2371L11.8503 59.0769C11.5587 59.4182 11.045 59.4592 10.7027 59.1685C10.3605 58.8777 10.3193 58.3653 10.6108 58.0239L23.736 42.6546Z" fill="#160925"/>
<path fill-rule="evenodd" clip-rule="evenodd" d="M60.6311 26.6994C60.9018 27.0573 60.8304 27.5665 60.4716 27.8365L39.2214 43.8289C38.8625 44.099 38.3521 44.0278 38.0813 43.6698C37.8105 43.3119 37.8819 42.8028 38.2408 42.5327L59.4909 26.5403C59.8498 26.2702 60.3603 26.3415 60.6311 26.6994Z" fill="#160925"/>
<path fill-rule="evenodd" clip-rule="evenodd" d="M70.9115 26.0106C71.1039 25.6053 71.5892 25.4323 71.9956 25.6242L79.9123 29.3627C80.3186 29.5545 80.4921 30.0386 80.2997 30.4439C80.1073 30.8492 79.622 31.0222 79.2156 30.8303L71.2989 27.0918C70.8926 26.8999 70.7191 26.4158 70.9115 26.0106Z" fill="#160925"/>
<path fill-rule="evenodd" clip-rule="evenodd" d="M101.567 15.5772C101.902 15.8766 101.93 16.3899 101.63 16.7237L90.7961 28.7699C90.4959 29.1037 89.9813 29.1316 89.6466 28.8322C89.3119 28.5328 89.284 28.0194 89.5842 27.6856L100.418 15.6394C100.718 15.3056 101.232 15.2777 101.567 15.5772Z" fill="#160925"/>
</svg>
