<svg width="79" height="79" viewBox="0 0 79 79" fill="none" xmlns="http://www.w3.org/2000/svg">
<path d="M34.5623 51.0208C34.5623 52.2388 34.2332 53.325 33.6407 54.3125C32.5215 52.3704 30.4148 51.0208 27.979 51.0208C25.5432 51.0208 23.4365 52.3704 22.3173 54.3125C21.7578 53.325 21.3957 52.2388 21.3957 51.0208C21.3957 47.4 24.3582 44.4375 27.979 44.4375C31.5998 44.4375 34.5623 47.4 34.5623 51.0208ZM75.7082 49.375V59.25C75.7082 61.0604 74.2269 62.5417 72.4165 62.5417H69.1248V65.8333C69.1248 69.4871 66.1953 72.4167 62.5415 72.4167H16.4582C14.7122 72.4167 13.0377 71.7231 11.8031 70.4885C10.5684 69.2538 9.87484 67.5794 9.87484 65.8333V62.5417H6.58317C4.77275 62.5417 3.2915 61.0604 3.2915 59.25V49.375C3.2915 47.5646 4.77275 46.0833 6.58317 46.0833H9.87484C9.87484 33.3446 20.1778 23.0417 32.9165 23.0417H36.2082V18.8613C34.2332 17.7421 32.9165 15.6025 32.9165 13.1667C32.9165 9.54584 35.879 6.58334 39.4998 6.58334C43.1207 6.58334 46.0832 9.54584 46.0832 13.1667C46.0832 15.6025 44.7665 17.7421 42.7915 18.8613V23.0417H46.0832C58.8219 23.0417 69.1248 33.3446 69.1248 46.0833H72.4165C74.2269 46.0833 75.7082 47.5646 75.7082 49.375ZM69.1248 52.6667H62.5415V46.0833C62.5415 36.9983 55.1682 29.625 46.0832 29.625H32.9165C23.8315 29.625 16.4582 36.9983 16.4582 46.0833V52.6667H9.87484V55.9583H16.4582V65.8333H62.5415V55.9583H69.1248V52.6667ZM51.0207 44.4375C47.3998 44.4375 44.4373 47.4 44.4373 51.0208C44.4373 52.2388 44.7994 53.325 45.359 54.3125C46.4782 52.3704 48.5848 51.0208 51.0207 51.0208C53.4565 51.0208 55.5632 52.3704 56.6823 54.3125C57.2748 53.325 57.604 52.2388 57.604 51.0208C57.604 49.2748 56.9104 47.6003 55.6758 46.3657C54.4412 45.1311 52.7667 44.4375 51.0207 44.4375Z" fill="#3F1B69"/>
</svg>
