<svg width="300" height="169" viewBox="0 0 300 169" fill="none" xmlns="http://www.w3.org/2000/svg">
<path d="M242.028 73.6334C246.435 73.6334 250.008 70.0372 250.008 65.6011C250.008 61.165 246.435 57.5688 242.028 57.5688C237.62 57.5688 234.048 61.165 234.048 65.6011C234.048 70.0372 237.62 73.6334 242.028 73.6334Z" fill="#17DBA7"/>
<path d="M250.028 74.1963C247.945 76.7556 244.781 78.3879 241.238 78.3879C237.975 78.3879 235.035 76.9973 232.962 74.779C229.515 76.8417 226.821 80.0433 225.394 83.8674C229.571 88.2974 235.475 91.0587 242.025 91.0587C248.57 91.0587 254.478 88.2974 258.655 83.8708C257.083 79.6626 253.981 76.206 250.028 74.1963Z" fill="#17DBA7"/>
<path d="M219.996 116.063C224.403 116.063 227.976 112.467 227.976 108.031C227.976 103.595 224.403 99.9985 219.996 99.9985C215.589 99.9985 212.016 103.595 212.016 108.031C212.016 112.467 215.589 116.063 219.996 116.063Z" stroke="#160925" stroke-width="2" stroke-miterlimit="10" stroke-linecap="round" stroke-linejoin="round"/>
<path d="M227.996 116.626C225.914 119.185 222.749 120.818 219.207 120.818C215.944 120.818 213.003 119.427 210.931 117.209C207.483 119.271 204.789 122.473 203.362 126.297C207.539 130.727 213.444 133.488 219.993 133.488C226.538 133.488 232.446 130.727 236.624 126.3C235.051 122.092 231.946 118.639 227.996 116.626Z" stroke="#160925" stroke-width="2" stroke-miterlimit="10" stroke-linecap="round" stroke-linejoin="round"/>
<path d="M46.3123 69.045L53.5554 51.4343C53.6508 51.2025 53.8942 51.0469 54.1606 51.0469H153.535C153.801 51.0469 154.045 51.2025 154.14 51.4343L161.383 69.045H46.3123Z" fill="#F2F2F2"/>
<path d="M96.4613 104.008H73.6168V141.431H96.4613V104.008Z" stroke="#160925" stroke-width="2" stroke-miterlimit="10" stroke-linecap="round" stroke-linejoin="round"/>
<path d="M89.1362 127.135C91.2798 127.135 93.0176 125.386 93.0176 123.228C93.0176 121.07 91.2798 119.321 89.1362 119.321C86.9925 119.321 85.2548 121.07 85.2548 123.228C85.2548 125.386 86.9925 127.135 89.1362 127.135Z" stroke="#160925" stroke-width="2" stroke-miterlimit="10" stroke-linecap="round" stroke-linejoin="round"/>
<path d="M167.949 73.4582H39.7501L49.503 49.7454C50.2793 47.8615 52.118 46.6299 54.1607 46.6299H153.535C155.577 46.6299 157.416 47.8615 158.192 49.7454L167.949 73.4582Z" stroke="#160925" stroke-width="2" stroke-miterlimit="10" stroke-linecap="round" stroke-linejoin="round"/>
<path d="M92.6295 57.0356L93.9091 47.1426" stroke="#160925" stroke-width="2" stroke-miterlimit="10" stroke-linecap="round" stroke-linejoin="round"/>
<path d="M72.8473 47.1426L65.8147 72.3319" stroke="#160925" stroke-width="2" stroke-miterlimit="10" stroke-linecap="round" stroke-linejoin="round"/>
<path d="M116.325 65.5322L116.645 72.3328" stroke="#160925" stroke-width="2" stroke-miterlimit="10" stroke-linecap="round" stroke-linejoin="round"/>
<path d="M115.457 46.9712L115.888 56.1888" stroke="#160925" stroke-width="2" stroke-miterlimit="10" stroke-linecap="round" stroke-linejoin="round"/>
<path d="M133.398 46.6299L141.578 72.6702" stroke="#160925" stroke-width="2" stroke-miterlimit="10" stroke-linecap="round" stroke-linejoin="round"/>
<path d="M62.7457 104.164H55.0256V113.255H62.7424C65.2357 113.255 67.2587 111.219 67.2587 108.709C67.2619 106.196 65.239 104.164 62.7457 104.164Z" stroke="#160925" stroke-width="2" stroke-miterlimit="10" stroke-linecap="round" stroke-linejoin="round"/>
<path d="M109.737 132.922H117.454V123.83H109.737C107.244 123.83 105.221 125.866 105.221 128.376C105.217 130.886 107.24 132.922 109.737 132.922Z" stroke="#160925" stroke-width="2" stroke-miterlimit="10" stroke-linecap="round" stroke-linejoin="round"/>
<path d="M151.449 90.2578V101.714" stroke="#160925" stroke-width="2" stroke-miterlimit="10" stroke-linecap="round" stroke-linejoin="round"/>
<path d="M117.786 141.431H55.0256V90.1255" stroke="#160925" stroke-width="2" stroke-miterlimit="10" stroke-linecap="round" stroke-linejoin="round"/>
<path d="M133.397 43.951H73.1005V39.3423C73.1005 34.2302 77.2187 30.085 82.2974 30.085H124.2C129.279 30.085 133.397 34.2302 133.397 39.3423V43.951Z" fill="#F2F2F2"/>
<path d="M52.516 90.2576C45.467 90.2576 39.7501 84.5066 39.7501 77.408V73.521H65.2819V77.408C65.2819 84.5066 59.5684 90.2576 52.516 90.2576Z" stroke="#160925" stroke-width="2" stroke-miterlimit="10" stroke-linecap="round" stroke-linejoin="round"/>
<path d="M155.143 87.6091C149.555 87.6091 145.009 83.0334 145.009 77.4082V76.1699H165.278V77.4082C165.278 83.0334 160.732 87.6091 155.143 87.6091Z" fill="#F2F2F2"/>
<path d="M78.5806 90.2576C71.5283 90.2576 65.8147 84.5033 65.8147 77.408V73.521H91.3465V77.408C91.3498 84.5066 85.6329 90.2576 78.5806 90.2576Z" stroke="#160925" stroke-width="2" stroke-miterlimit="10" stroke-linecap="round" stroke-linejoin="round"/>
<path d="M104.116 90.2576C97.0639 90.2576 91.3503 84.5033 91.3503 77.408V73.521H116.882V77.408C116.882 84.5066 111.165 90.2576 104.116 90.2576Z" stroke="#160925" stroke-width="2" stroke-miterlimit="10" stroke-linecap="round" stroke-linejoin="round"/>
<path d="M129.648 90.2576C122.596 90.2576 116.882 84.5033 116.882 77.408V73.521H142.414V77.408C142.417 84.5066 136.7 90.2576 129.648 90.2576Z" stroke="#160925" stroke-width="2" stroke-miterlimit="10" stroke-linecap="round" stroke-linejoin="round"/>
<path d="M155.183 90.2576C148.131 90.2576 142.417 84.5033 142.417 77.408V73.521H167.949V77.408C167.949 84.5066 162.232 90.2576 155.183 90.2576Z" stroke="#160925" stroke-width="2" stroke-miterlimit="10" stroke-linecap="round" stroke-linejoin="round"/>
<path d="M213.023 74.3119C213.023 58.1878 226.009 45.1196 242.025 45.1196C258.041 45.1196 271.027 58.1911 271.027 74.3119C271.027 90.4327 258.041 103.504 242.025 103.504" stroke="#160925" stroke-width="2" stroke-miterlimit="10" stroke-linecap="round" stroke-linejoin="round"/>
<path d="M248.995 116.745C248.995 132.869 236.008 145.937 219.993 145.937C203.977 145.937 190.99 132.866 190.99 116.745C190.99 100.624 203.977 87.5527 219.993 87.5527" stroke="#160925" stroke-width="2" stroke-miterlimit="10" stroke-linecap="round" stroke-linejoin="round"/>
<path d="M242.169 39.4915C242.169 32.9094 236.867 27.5723 230.328 27.5723H196.448C189.908 27.5723 184.606 32.9094 184.606 39.4915V75.5804C184.606 82.1625 179.304 87.4996 172.764 87.4996H171.12" stroke="#17DBA7" stroke-width="2" stroke-miterlimit="10" stroke-linecap="round" stroke-linejoin="round"/>
<path d="M144.654 143.507C144.654 143.507 138.256 144.583 133.18 143.636C129.309 142.914 126.592 140.821 125.779 137.335C123.895 129.276 134.601 117.814 134.601 117.814C134.601 117.814 131.121 124.558 141.476 130.541C148.084 134.362 144.654 143.507 144.654 143.507Z" fill="#F2F2F2"/>
<path d="M149.712 147.864C143.604 148.291 133.226 148.123 130.374 147.586C126.236 146.808 122.73 144.414 121.546 137.918C119.326 125.751 133.881 113.832 133.881 113.832" stroke="#160925" stroke-width="2" stroke-miterlimit="10" stroke-linecap="round" stroke-linejoin="round"/>
<path d="M152.768 147.583C156.906 146.805 160.412 144.411 161.597 137.915C163.817 125.748 149.262 113.829 149.262 113.829" stroke="#17DBA7" stroke-width="2" stroke-miterlimit="10" stroke-linecap="round" stroke-linejoin="round"/>
<path d="M145.795 112.494H137.157C135.769 112.494 134.644 111.362 134.644 109.965C134.644 108.567 135.769 107.435 137.157 107.435H145.795C147.183 107.435 148.308 108.567 148.308 109.965C148.308 111.362 147.183 112.494 145.795 112.494Z" fill="#17DBA7"/>
<path d="M138.509 105.747L135.93 98.4791C135.93 98.4791 137.953 101.545 141.472 98.9989C145.597 96.0158 147.015 98.4791 147.015 98.4791L144.436 105.747" stroke="#160925" stroke-width="2" stroke-miterlimit="10" stroke-linecap="round" stroke-linejoin="round"/>
<path d="M140.696 137.69C137.969 137.379 136.841 135.296 136.512 134.283L139.443 132.816C139.831 133.664 140.611 134.425 141.598 134.425C142.44 134.425 142.87 134.054 142.87 133.415C142.87 131.495 136.923 131.661 136.923 127.039C136.923 124.748 138.381 123.158 140.696 122.827V121.652H142.726V122.85C145.002 123.304 145.946 125.142 146.275 126.092L143.364 127.433C143.078 126.794 142.647 126.009 141.558 126.009C140.88 126.009 140.43 126.423 140.43 126.979C140.43 128.939 146.416 128.734 146.416 133.151C146.416 135.422 145.041 137.134 142.726 137.61V139.243H140.696V137.69Z" fill="#17DBA7"/>
</svg>
