<svg width="253" height="169" viewBox="0 0 253 169" fill="none" xmlns="http://www.w3.org/2000/svg">
<path d="M138.101 136.49H114.652C110.369 136.49 106.9 139.956 106.9 144.235H145.853C145.853 139.956 142.384 136.49 138.101 136.49Z" fill="#F2F2F2"/>
<path d="M114.652 30.7676H138.101C142.384 30.7676 145.853 27.3017 145.853 23.0225H106.9C106.9 27.3017 110.369 30.7676 114.652 30.7676Z" fill="#F2F2F2"/>
<path d="M203.798 108.239V134.863C203.798 140.672 199.07 145.396 193.256 145.396H59.6921C53.8783 145.396 49.1497 140.672 49.1497 134.863V63.104" stroke="#160925" stroke-width="3" stroke-miterlimit="10" stroke-linecap="round" stroke-linejoin="round"/>
<path d="M203.799 87.1909V97.5694" stroke="#160925" stroke-width="3" stroke-miterlimit="10" stroke-linecap="round" stroke-linejoin="round"/>
<path d="M49.1497 51.5827V33.5559C49.1497 27.747 53.8783 23.0225 59.6921 23.0225H193.256C199.07 23.0225 203.798 27.747 203.798 33.5559V75.9219" stroke="#160925" stroke-width="3" stroke-miterlimit="10" stroke-linecap="round" stroke-linejoin="round"/>
<path d="M58.6453 50.3242V123.903" stroke="#160925" stroke-width="3" stroke-miterlimit="10" stroke-linecap="round" stroke-linejoin="round"/>
<path d="M186.357 118.288V23.0228C186.357 17.6786 182.016 13.3413 176.667 13.3413H78.8004C73.4516 13.3413 69.1106 17.6786 69.1106 23.0228" stroke="#160925" stroke-width="3" stroke-miterlimit="10" stroke-linecap="round" stroke-linejoin="round"/>
<path d="M186.356 131.649C188.925 131.649 191.007 129.569 191.007 127.002C191.007 124.436 188.925 122.355 186.356 122.355C183.788 122.355 181.705 124.436 181.705 127.002C181.705 129.569 183.788 131.649 186.356 131.649Z" fill="#17DBA7"/>
<path d="M69.1103 44.7092C71.679 44.7092 73.7614 42.6287 73.7614 40.0621C73.7614 37.4956 71.679 35.415 69.1103 35.415C66.5416 35.415 64.4592 37.4956 64.4592 40.0621C64.4592 42.6287 66.5416 44.7092 69.1103 44.7092Z" fill="#17DBA7"/>
<path d="M72.6765 145.396C72.6765 151.069 77.2695 155.658 82.9477 155.658H119.304C124.982 155.658 129.575 151.069 129.575 145.396V123.903" stroke="#160925" stroke-width="3" stroke-miterlimit="10" stroke-linecap="round" stroke-linejoin="round"/>
<path d="M123.738 78.8437H125.84C125.84 73.0354 121.125 68.3101 115.33 68.3101V70.4168C119.966 70.4168 123.738 74.1973 123.738 78.8437Z" fill="#160925"/>
<path d="M144.234 73.5764H136.351C134.032 73.5764 132.147 75.4661 132.147 77.7899C132.147 80.1136 134.032 82.0033 136.351 82.0033H144.234C145.103 82.0033 145.811 82.7122 145.811 83.5834C145.811 84.4545 145.103 85.1634 144.234 85.1634H133.198V87.2701H144.234C146.263 87.2701 147.913 85.6164 147.913 83.5834C147.913 81.5504 146.263 79.8966 144.234 79.8966H136.351C135.192 79.8966 134.249 78.9517 134.249 77.7899C134.249 76.628 135.192 75.6831 136.351 75.6831H144.234C146.263 75.6831 147.913 74.0294 147.913 71.9964C147.913 69.9634 146.263 68.3096 144.234 68.3096H143.708C141.97 68.3096 140.555 66.8918 140.555 65.1495V60.3188L142.965 62.7341L144.452 61.2447L140.247 57.0312L140.241 57.0375C140.145 56.9417 140.037 56.8564 139.907 56.8026C139.514 56.6383 139.063 56.7289 138.761 57.0312L134.557 61.2447L136.043 62.7341L138.453 60.3188V65.1495C138.453 68.0536 140.811 70.4163 143.708 70.4163H144.234C145.103 70.4163 145.811 71.1252 145.811 71.9964C145.811 72.8675 145.103 73.5764 144.234 73.5764Z" fill="url(#paint0_linear_55_4673)"/>
<path d="M92.647 64.9502L93.8677 63.2362L101.227 68.5006L100.007 70.2147L92.647 64.9502Z" fill="#160925"/>
<path d="M103.85 56.0825L105.781 55.2528L108.936 62.6261L107.005 63.4559L103.85 56.0825Z" fill="#160925"/>
<path d="M90.104 76.7368H98.5126V78.8435H90.104V76.7368Z" fill="#160925"/>
<path d="M148.964 104.124H147.913V96.7505C147.913 96.168 147.443 95.6971 146.862 95.6971H137.402C136.821 95.6971 136.351 96.168 136.351 96.7505C136.351 99.0742 134.465 100.964 132.147 100.964C129.828 100.964 127.942 99.0742 127.942 96.7505C127.942 96.168 127.472 95.6971 126.891 95.6971H124.596C124.278 94.8049 123.578 94.1023 122.688 93.7842C122.689 92.7877 123.125 91.8702 123.857 91.3299C127.673 88.5111 130.044 83.7256 130.044 78.8433C130.044 70.7113 123.444 64.0962 115.329 64.0962C107.215 64.0962 100.615 70.7113 100.615 78.8433C100.615 83.7256 102.986 88.5111 106.803 91.3299C107.535 91.8702 107.971 92.7867 107.972 93.7842C106.752 94.2203 105.87 95.379 105.87 96.7505C105.87 97.5447 106.174 98.2631 106.658 98.8193C106.174 99.3839 105.87 100.134 105.87 100.964C105.87 102.706 107.179 104.124 108.789 104.124H110.18C110.669 106.525 112.791 108.337 115.329 108.337C117.868 108.337 119.99 106.525 120.479 104.124H120.585V118.871C120.585 119.454 121.055 119.924 121.636 119.924H146.862C147.443 119.924 147.913 119.454 147.913 118.871V114.658H148.964C151.861 114.658 154.219 112.295 154.219 109.391C154.219 106.487 151.861 104.124 148.964 104.124ZM107.972 96.7505C107.972 96.169 108.443 95.6971 109.023 95.6971H121.636C122.216 95.6971 122.687 96.169 122.687 96.7505C122.687 97.3319 122.216 97.8038 121.636 97.8038H109.023C108.443 97.8038 107.972 97.3319 107.972 96.7505ZM102.717 78.8433C102.717 71.8732 108.375 66.2029 115.329 66.2029C122.284 66.2029 127.942 71.8732 127.942 78.8433C127.942 83.0694 125.899 87.2049 122.608 89.635C121.392 90.5335 120.653 92.0019 120.596 93.5904H110.063C110.005 92.0019 109.267 90.5335 108.051 89.635C104.76 87.2049 102.717 83.0694 102.717 78.8433ZM107.972 100.964C107.972 100.393 108.346 99.9106 108.789 99.9106H109.023H121.636H121.87C122.313 99.9106 122.687 100.393 122.687 100.964C122.687 101.535 122.313 102.017 121.87 102.017H108.789C108.346 102.017 107.972 101.535 107.972 100.964ZM115.329 106.231C113.961 106.231 112.805 105.347 112.37 104.124H118.288C117.854 105.347 116.698 106.231 115.329 106.231ZM148.964 112.551H146.862C146.28 112.551 145.81 113.022 145.81 113.604V117.818H122.687V103.983C123.897 103.597 124.789 102.398 124.789 100.964C124.789 100.134 124.485 99.3839 124.001 98.8193C124.259 98.5233 124.461 98.182 124.596 97.8038H125.927C126.43 100.789 129.027 103.071 132.147 103.071C135.266 103.071 137.863 100.789 138.366 97.8038H145.81V105.177C145.81 105.76 146.28 106.231 146.862 106.231H148.964C150.702 106.231 152.117 107.649 152.117 109.391C152.117 111.133 150.702 112.551 148.964 112.551Z" fill="#160925"/>
<defs>
<linearGradient id="paint0_linear_55_4673" x1="132.147" y1="56.7217" x2="148.337" y2="56.9481" gradientUnits="userSpaceOnUse">
<stop stop-color="#A193FF"/>
<stop offset="1" stop-color="#6046FE"/>
</linearGradient>
</defs>
</svg>
