<svg width="37" height="37" viewBox="0 0 37 37" fill="none" xmlns="http://www.w3.org/2000/svg">
<path d="M13.2178 24.7821C13.0784 24.6426 13 24.4534 13 24.2561C13 24.0588 13.0784 23.8696 13.2178 23.7301L17.9525 18.9954L13.2178 14.2608C13.0823 14.1205 13.0073 13.9325 13.009 13.7375C13.0107 13.5424 13.089 13.3558 13.2269 13.2178C13.3648 13.0799 13.5514 13.0017 13.7465 13C13.9416 12.9983 14.1295 13.0733 14.2698 13.2088L19.0045 17.9435L23.7392 13.2088C23.8795 13.0733 24.0674 12.9983 24.2625 13C24.4576 13.0017 24.6442 13.0799 24.7821 13.2178C24.92 13.3558 24.9983 13.5424 25 13.7375C25.0017 13.9325 24.9267 14.1205 24.7912 14.2608L20.0565 18.9954L24.7912 23.7301C24.9267 23.8704 25.0017 24.0584 25 24.2534C24.9983 24.4485 24.92 24.6351 24.7821 24.773C24.6442 24.911 24.4576 24.9892 24.2625 24.9909C24.0674 24.9926 23.8795 24.9176 23.7392 24.7821L19.0045 20.0474L14.2698 24.7821C14.1303 24.9216 13.9411 24.9999 13.7438 24.9999C13.5465 24.9999 13.3573 24.9216 13.2178 24.7821Z" fill="#DE453C" stroke="#DE453C"/>
<path fill-rule="evenodd" clip-rule="evenodd" d="M18.5002 33.9166C27.0148 33.9166 33.9168 27.0146 33.9168 18.5C33.9168 9.98536 27.0148 3.08331 18.5002 3.08331C9.98554 3.08331 3.0835 9.98536 3.0835 18.5C3.0835 27.0146 9.98554 33.9166 18.5002 33.9166ZM18.5002 32.375C26.163 32.375 32.3752 26.1628 32.3752 18.5C32.3752 10.8371 26.163 4.62498 18.5002 4.62498C10.8373 4.62498 4.62516 10.8371 4.62516 18.5C4.62516 26.1628 10.8373 32.375 18.5002 32.375Z" fill="#FBECEB" stroke="#FBECEB"/>
</svg>
