<svg width="651" height="86" viewBox="0 0 651 86" fill="none" xmlns="http://www.w3.org/2000/svg">
<rect y="80" width="21" height="6" fill="#458FFF" fill-opacity="0.32"/>
<rect x="42" y="80" width="21" height="6" fill="#458FFF" fill-opacity="0.32"/>
<rect x="167" y="80" width="21" height="6" fill="#458FFF" fill-opacity="0.32"/>
<rect x="503" y="80" width="21" height="6" fill="#458FFF" fill-opacity="0.32"/>
<rect x="315" y="80" width="21" height="6" fill="#458FFF" fill-opacity="0.32"/>
<rect x="399" y="80" width="21" height="6" fill="#458FFF" fill-opacity="0.32"/>
<rect x="440" y="80" width="21" height="6" fill="#458FFF" fill-opacity="0.32"/>
<rect x="461" y="75" width="21" height="11" fill="#458FFF" fill-opacity="0.32"/>
<rect x="336" y="75" width="21" height="11" fill="#458FFF" fill-opacity="0.32"/>
<rect x="251" y="74" width="64" height="12" fill="#458FFF" fill-opacity="0.32"/>
<rect x="587" y="74" width="64" height="12" fill="#458FFF" fill-opacity="0.32"/>
<rect x="188" y="63" width="21" height="23" fill="#458FFF" fill-opacity="0.32"/>
<rect x="524" y="33" width="21" height="53" fill="#458FFF" fill-opacity="0.32"/>
<rect x="209" y="19" width="21" height="67" fill="#458FFF" fill-opacity="0.32"/>
<rect x="545" width="21" height="86" fill="#458FFF" fill-opacity="0.32"/>
<rect x="21" y="68" width="21" height="16" fill="#458FFF" fill-opacity="0.32"/>
<rect x="104" y="68" width="21" height="16" fill="#458FFF" fill-opacity="0.32"/>
<rect x="146" y="57" width="21" height="27" fill="#458FFF" fill-opacity="0.32"/>
<rect x="230" y="57" width="21" height="27" fill="#458FFF" fill-opacity="0.32"/>
<rect x="566" y="57" width="21" height="27" fill="#458FFF" fill-opacity="0.32"/>
<rect x="482" y="57" width="21" height="27" fill="#458FFF" fill-opacity="0.32"/>
<rect x="125" y="74" width="21" height="12" fill="#458FFF" fill-opacity="0.32"/>
</svg>
