<svg width="129" height="86" viewBox="0 0 129 86" fill="none" xmlns="http://www.w3.org/2000/svg">
<path d="M70.2764 69.4563H58.3436C56.1642 69.4563 54.3989 71.22 54.3989 73.3976H74.2211C74.2211 71.22 72.4558 69.4563 70.2764 69.4563Z" fill="#F2F2F2"/>
<path d="M58.3436 15.6567H70.2764C72.4558 15.6567 74.2211 13.8929 74.2211 11.7153H54.3989C54.3989 13.8929 56.1642 15.6567 58.3436 15.6567Z" fill="#F2F2F2"/>
<path d="M103.708 55.0801V68.6284C103.708 71.5844 101.302 73.9886 98.3432 73.9886H30.3758C27.4173 73.9886 25.011 71.5844 25.011 68.6284V32.1121" stroke="#35383C" stroke-width="1.52663" stroke-miterlimit="10" stroke-linecap="round" stroke-linejoin="round"/>
<path d="M103.708 44.3694V49.6508" stroke="#35383C" stroke-width="1.52663" stroke-miterlimit="10" stroke-linecap="round" stroke-linejoin="round"/>
<path d="M25.011 26.249V17.0755C25.011 14.1195 27.4173 11.7153 30.3758 11.7153H98.3432C101.302 11.7153 103.708 14.1195 103.708 17.0755V38.6346" stroke="#35383C" stroke-width="1.52663" stroke-miterlimit="10" stroke-linecap="round" stroke-linejoin="round"/>
<path d="M29.8433 25.6086V63.0512" stroke="#35383C" stroke-width="1.52663" stroke-miterlimit="10" stroke-linecap="round" stroke-linejoin="round"/>
<path d="M94.8325 60.194V11.7157C94.8325 8.9962 92.6234 6.78906 89.9016 6.78906H40.0996C37.3777 6.78906 35.1687 8.9962 35.1687 11.7157" stroke="#35383C" stroke-width="1.52663" stroke-miterlimit="10" stroke-linecap="round" stroke-linejoin="round"/>
<path d="M94.8322 66.9928C96.1393 66.9928 97.199 65.934 97.199 64.628C97.199 63.3219 96.1393 62.2632 94.8322 62.2632C93.525 62.2632 92.4653 63.3219 92.4653 64.628C92.4653 65.934 93.525 66.9928 94.8322 66.9928Z" fill="#17DBA7"/>
<path d="M35.1686 22.7513C36.4757 22.7513 37.5354 21.6926 37.5354 20.3865C37.5354 19.0805 36.4757 18.0217 35.1686 18.0217C33.8614 18.0217 32.8018 19.0805 32.8018 20.3865C32.8018 21.6926 33.8614 22.7513 35.1686 22.7513Z" fill="#17DBA7"/>
<path d="M36.9834 73.9884C36.9834 76.8755 39.3206 79.2107 42.2101 79.2107H60.7108C63.6003 79.2107 65.9376 76.8755 65.9376 73.9884V63.0513" stroke="#35383C" stroke-width="1.52663" stroke-miterlimit="10" stroke-linecap="round" stroke-linejoin="round"/>
<path d="M62.9674 40.1218H64.0371C64.0371 37.1661 61.6377 34.7615 58.6885 34.7615V35.8335C61.0478 35.8335 62.9674 37.7574 62.9674 40.1218Z" fill="#35383C"/>
<path d="M73.3973 37.4415H69.3858C68.2059 37.4415 67.2463 38.4031 67.2463 39.5856C67.2463 40.7681 68.2059 41.7297 69.3858 41.7297H73.3973C73.8396 41.7297 74.1996 42.0905 74.1996 42.5338C74.1996 42.9771 73.8396 43.3378 73.3973 43.3378H67.7812V44.4099H73.3973C74.4296 44.4099 75.2693 43.5683 75.2693 42.5338C75.2693 41.4992 74.4296 40.6577 73.3973 40.6577H69.3858C68.7958 40.6577 68.3161 40.1768 68.3161 39.5856C68.3161 38.9943 68.7958 38.5135 69.3858 38.5135H73.3973C74.4296 38.5135 75.2693 37.672 75.2693 36.6374C75.2693 35.6029 74.4296 34.7613 73.3973 34.7613H73.1298C72.2452 34.7613 71.5253 34.0398 71.5253 33.1532V30.695L72.7517 31.9241L73.508 31.1661L71.3685 29.022L71.3653 29.0252C71.3167 28.9765 71.2616 28.933 71.1952 28.9057C70.9952 28.8221 70.7657 28.8682 70.6122 29.022L68.4728 31.1661L69.2291 31.9241L70.4555 30.695V33.1532C70.4555 34.631 71.6552 35.8334 73.1298 35.8334H73.3973C73.8396 35.8334 74.1996 36.1941 74.1996 36.6374C74.1996 37.0807 73.8396 37.4415 73.3973 37.4415Z" fill="#17DBA7"/>
<path d="M47.1458 33.0518L47.767 32.1795L51.5121 34.8585L50.8909 35.7307L47.1458 33.0518Z" fill="#35383C"/>
<path d="M52.8469 28.5393L53.8296 28.1171L55.4347 31.8692L54.4521 32.2914L52.8469 28.5393Z" fill="#35383C"/>
<path d="M45.8518 39.0496H50.1307V40.1216H45.8518V39.0496Z" fill="#35383C"/>
<path d="M75.8039 52.9864H75.2691V49.2342C75.2691 48.9377 75.03 48.6981 74.7342 48.6981H69.9204C69.6246 48.6981 69.3856 48.9377 69.3856 49.2342C69.3856 50.4166 68.426 51.3783 67.2461 51.3783C66.0662 51.3783 65.1066 50.4166 65.1066 49.2342C65.1066 48.9377 64.8676 48.6981 64.5718 48.6981H63.4036C63.2421 48.2441 62.8859 47.8866 62.4329 47.7247C62.4334 47.2176 62.6554 46.7507 63.0276 46.4757C64.9697 45.0413 66.1764 42.6061 66.1764 40.1216C66.1764 35.9835 62.8174 32.6172 58.6883 32.6172C54.5591 32.6172 51.2002 35.9835 51.2002 40.1216C51.2002 42.6061 52.4068 45.0413 54.3495 46.4757C54.7217 46.7507 54.9437 47.2171 54.9442 47.7247C54.3233 47.9466 53.8745 48.5362 53.8745 49.2342C53.8745 49.6383 54.0291 50.0039 54.2757 50.2869C54.0291 50.5742 53.8745 50.9559 53.8745 51.3783C53.8745 52.2649 54.541 52.9864 55.3598 52.9864H56.068C56.3167 54.208 57.3966 55.1305 58.6883 55.1305C59.98 55.1305 61.0599 54.208 61.3086 52.9864H61.3626V60.4908C61.3626 60.7872 61.6017 61.0268 61.8975 61.0268H74.7342C75.03 61.0268 75.2691 60.7872 75.2691 60.4908V58.3467H75.8039C77.2785 58.3467 78.4782 57.1444 78.4782 55.6665C78.4782 54.1887 77.2785 52.9864 75.8039 52.9864ZM54.9442 49.2342C54.9442 48.9383 55.1839 48.6981 55.4791 48.6981H61.8975C62.1927 48.6981 62.4323 48.9383 62.4323 49.2342C62.4323 49.53 62.1927 49.7702 61.8975 49.7702H55.4791C55.1839 49.7702 54.9442 49.53 54.9442 49.2342ZM52.2699 40.1216C52.2699 36.5747 55.1491 33.6893 58.6883 33.6893C62.2275 33.6893 65.1066 36.5747 65.1066 40.1216C65.1066 42.2722 64.0669 44.3766 62.3922 45.6133C61.7734 46.0705 61.3974 46.8177 61.3685 47.6261H56.0081C55.9787 46.8177 55.6032 46.0705 54.9844 45.6133C53.3097 44.3766 52.2699 42.2722 52.2699 40.1216ZM54.9442 51.3783C54.9442 51.0878 55.1347 50.8423 55.3598 50.8423H55.4791H61.8975H62.0167C62.2419 50.8423 62.4323 51.0878 62.4323 51.3783C62.4323 51.6688 62.2419 51.9143 62.0167 51.9143H55.3598C55.1347 51.9143 54.9442 51.6688 54.9442 51.3783ZM58.6883 54.0584C57.9919 54.0584 57.4035 53.6087 57.1821 52.9864H60.1939C59.973 53.6087 59.3847 54.0584 58.6883 54.0584ZM75.8039 57.2746H74.7342C74.4384 57.2746 74.1993 57.5142 74.1993 57.8107V59.9548H62.4323V52.9145C63.048 52.7184 63.5021 52.1078 63.5021 51.3783C63.5021 50.9559 63.3475 50.5742 63.1009 50.2869C63.2325 50.1363 63.3352 49.9626 63.4036 49.7702H64.0813C64.337 51.2893 65.6586 52.4503 67.2461 52.4503C68.8336 52.4503 70.1552 51.2893 70.4109 49.7702H74.1993V53.5224C74.1993 53.8188 74.4384 54.0584 74.7342 54.0584H75.8039C76.6886 54.0584 77.4085 54.7799 77.4085 55.6665C77.4085 56.5531 76.6886 57.2746 75.8039 57.2746Z" fill="#35383C"/>
</svg>
