<svg width="91" height="94" viewBox="0 0 91 94" fill="none" xmlns="http://www.w3.org/2000/svg">
<path d="M66.3108 27.0603H56.519V44.8915H66.3108V27.0603Z" fill="#17DBA7"/>
<path fill-rule="evenodd" clip-rule="evenodd" d="M75.4493 30.5869C75.7311 30.5869 75.9595 30.8147 75.9595 31.0957V44.3715C75.9595 44.6525 75.7311 44.8803 75.4493 44.8803C75.1676 44.8803 74.9392 44.6525 74.9392 44.3715V31.0957C74.9392 30.8147 75.1676 30.5869 75.4493 30.5869Z" fill="#35383C"/>
<path fill-rule="evenodd" clip-rule="evenodd" d="M17.8739 81.4768C18.1556 81.4768 18.384 81.7046 18.384 81.9856V86.2286C18.384 89.1362 20.7535 91.4987 23.6706 91.4987H70.2271C70.5089 91.4987 70.7373 91.7265 70.7373 92.0075C70.7373 92.2885 70.5089 92.5163 70.2271 92.5163H23.6706C20.1905 92.5163 17.3638 89.6987 17.3638 86.2286V81.9856C17.3638 81.7046 17.5922 81.4768 17.8739 81.4768Z" fill="#35383C"/>
<path fill-rule="evenodd" clip-rule="evenodd" d="M4.59655 1.01759C2.69408 1.01759 1.02025 2.85686 1.02025 5.29848V33.8544C1.02025 34.1354 0.791859 34.3632 0.510125 34.3632C0.228391 34.3632 0 34.1354 0 33.8544V5.29848C0 2.45583 1.98175 0 4.59655 0H71.3633C73.978 0 75.9598 2.45583 75.9598 5.29848V27.0603C75.9598 27.3413 75.7314 27.5691 75.4497 27.5691C75.1679 27.5691 74.9396 27.3413 74.9396 27.0603V5.29848C74.9396 2.85686 73.2657 1.01759 71.3633 1.01759H4.59655Z" fill="#35383C"/>
<path fill-rule="evenodd" clip-rule="evenodd" d="M0.510125 39.7234C0.791859 39.7234 1.02025 39.9512 1.02025 40.2322V46.3234C1.02025 46.6044 0.791859 46.8322 0.510125 46.8322C0.228391 46.8322 0 46.6044 0 46.3234V40.2322C0 39.9512 0.228391 39.7234 0.510125 39.7234Z" fill="#35383C"/>
<path fill-rule="evenodd" clip-rule="evenodd" d="M0.510125 53.1553C0.791859 53.1553 1.02025 53.3831 1.02025 53.6641V76.9357C1.02025 79.3773 2.69408 81.2166 4.59655 81.2166H46.9883C47.2701 81.2166 47.4984 81.4444 47.4984 81.7254C47.4984 82.0064 47.2701 82.2342 46.9883 82.2342H4.59655C1.98175 82.2342 0 79.7784 0 76.9357V53.6641C0 53.3831 0.228391 53.1553 0.510125 53.1553Z" fill="#35383C"/>
<path fill-rule="evenodd" clip-rule="evenodd" d="M63.1601 53.2529C62.3743 53.1037 61.5736 53.0411 60.7698 53.0536C60.4881 53.058 60.2562 52.8337 60.2518 52.5528C60.2474 52.2718 60.4722 52.0405 60.7539 52.0361C61.6212 52.0226 62.4916 52.0901 63.3509 52.2533C63.6276 52.3058 63.8093 52.5722 63.7566 52.8482C63.7039 53.1243 63.4368 53.3055 63.1601 53.2529Z" fill="#35383C"/>
<path fill-rule="evenodd" clip-rule="evenodd" d="M57.1127 53.1562C57.2138 53.4185 57.0826 53.7128 56.8196 53.8137C55.3589 54.3738 53.9963 55.2456 52.8194 56.4189L52.8189 56.4194C48.3067 60.9052 48.3176 68.1969 52.8199 72.6978C57.3197 77.1962 64.6344 77.1854 69.1493 72.6968C73.6621 68.2104 73.6629 60.919 69.1488 56.4189C68.9496 56.2202 68.9495 55.8981 69.1487 55.6993C69.3478 55.5006 69.6708 55.5005 69.8701 55.6991C74.7822 60.5962 74.7829 68.5329 69.8696 73.4175C64.9583 78.3001 56.9979 78.3153 52.0976 73.4165C47.1999 68.5203 47.1846 60.584 52.0985 55.6987C53.376 54.4253 54.8594 53.4751 56.4535 52.8639C56.7165 52.763 57.0116 52.8939 57.1127 53.1562Z" fill="#35383C"/>
<path fill-rule="evenodd" clip-rule="evenodd" d="M46.6537 50.2716C54.5688 42.3808 67.399 42.3808 75.3141 50.2716C81.9259 56.863 83.0104 66.8758 78.5826 74.589L88.9573 84.9317C91.0364 87.0044 91.0364 90.3714 88.9716 92.4442L88.9691 92.4467C86.8778 94.5172 83.5009 94.519 81.421 92.4455L71.0458 82.1023C63.297 86.5167 53.2658 85.4361 46.6537 78.8443C38.7385 70.9535 38.7385 58.1624 46.6537 50.2716ZM74.5928 50.9913C67.0761 43.4977 54.8917 43.4977 47.375 50.9913C39.8584 58.4847 39.8584 70.6312 47.375 78.1246C53.7463 84.4763 63.4635 85.4412 70.8665 81.0283C71.0671 80.9087 71.3235 80.9404 71.4888 81.1052L82.1422 91.7258C83.8218 93.4002 86.5538 93.4025 88.2488 91.726C89.9169 90.0504 89.9166 87.3268 88.236 85.6514L77.5826 75.0308C77.4171 74.8658 77.3853 74.6096 77.5056 74.4094C81.9317 67.0428 80.9642 57.343 74.5928 50.9913Z" fill="#35383C"/>
<path d="M19.0103 44.2668H9.21851V72.5104H19.0103V44.2668Z" fill="#17DBA7"/>
<path fill-rule="evenodd" clip-rule="evenodd" d="M20.9684 50.9954C21.2501 50.9954 21.4785 51.2232 21.4785 51.5042V53.1311C21.4785 53.4121 21.2501 53.6399 20.9684 53.6399C20.6866 53.6399 20.4583 53.4121 20.4583 53.1311V51.5042C20.4583 51.2232 20.6866 50.9954 20.9684 50.9954Z" fill="#35383C"/>
<path fill-rule="evenodd" clip-rule="evenodd" d="M20.4583 38.8013C20.4583 38.5203 20.6866 38.2925 20.9684 38.2925H30.7601C31.0419 38.2925 31.2703 38.5203 31.2703 38.8013V72.5113C31.2703 72.7923 31.0419 73.0201 30.7601 73.0201H20.9684C20.6866 73.0201 20.4583 72.7923 20.4583 72.5113V57.0489C20.4583 56.7679 20.6866 56.5401 20.9684 56.5401C21.2501 56.5401 21.4785 56.7679 21.4785 57.0489V72.0025H30.25V39.3101H21.4785V47.9772C21.4785 48.2582 21.2501 48.486 20.9684 48.486C20.6866 48.486 20.4583 48.2582 20.4583 47.9772V38.8013Z" fill="#35383C"/>
<path d="M22.927 70.4279V40.8828L28.8021 70.4279H22.927Z" fill="#F2F2F2"/>
<path fill-rule="evenodd" clip-rule="evenodd" d="M44.4807 35.6511C44.4807 35.3701 44.7091 35.1423 44.9908 35.1423H54.7826C55.0643 35.1423 55.2927 35.3701 55.2927 35.6511V45.5429C55.2927 45.8239 55.0643 46.0517 54.7826 46.0517C54.5009 46.0517 54.2725 45.8239 54.2725 45.5429V36.1599H45.501V45.6861C45.501 45.9671 45.2726 46.1949 44.9908 46.1949C44.7091 46.1949 44.4807 45.9671 44.4807 45.6861V35.6511Z" fill="#35383C"/>
<path d="M34.6772 70.4283V34.2454L40.5523 70.4283H34.6772Z" fill="#F2F2F2"/>
<path fill-rule="evenodd" clip-rule="evenodd" d="M35.3027 31.9026C35.3027 31.6216 35.5311 31.3938 35.8129 31.3938H42.5104C42.7922 31.3938 43.0205 31.6216 43.0205 31.9026V52.1807C43.0205 52.4617 42.7922 52.6895 42.5104 52.6895C42.2287 52.6895 42.0003 52.4617 42.0003 52.1807V32.4114H35.8129C35.5311 32.4114 35.3027 32.1836 35.3027 31.9026Z" fill="#35383C"/>
<path fill-rule="evenodd" clip-rule="evenodd" d="M32.2083 31.9026C32.2083 31.6216 32.4366 31.3938 32.7184 31.3938H33.6714C33.9532 31.3938 34.1816 31.6216 34.1816 31.9026C34.1816 32.1836 33.9532 32.4114 33.6714 32.4114H33.2285V71.976H39.1548C39.4366 71.976 39.6649 72.2038 39.6649 72.4848C39.6649 72.7658 39.4366 72.9936 39.1548 72.9936H32.7184C32.4366 72.9936 32.2083 72.7658 32.2083 72.4848V31.9026Z" fill="#35383C"/>
<path d="M53.5157 23.6763C55.1742 23.6763 56.5186 22.3361 56.5186 20.6828C56.5186 19.0295 55.1742 17.6892 53.5157 17.6892C51.8573 17.6892 50.5129 19.0295 50.5129 20.6828C50.5129 22.3361 51.8573 23.6763 53.5157 23.6763Z" fill="#17DBA7"/>
<path d="M41.2443 17.689C42.9027 17.689 44.2471 16.3488 44.2471 14.6955C44.2471 13.0422 42.9027 11.7019 41.2443 11.7019C39.5859 11.7019 38.2415 13.0422 38.2415 14.6955C38.2415 16.3488 39.5859 17.689 41.2443 17.689Z" fill="#17DBA7"/>
<path d="M20.8768 33.0474C22.5352 33.0474 23.8796 31.7071 23.8796 30.0539C23.8796 28.4006 22.5352 27.0603 20.8768 27.0603C19.2184 27.0603 17.874 28.4006 17.874 30.0539C17.874 31.7071 19.2184 33.0474 20.8768 33.0474Z" fill="#17DBA7"/>
<path fill-rule="evenodd" clip-rule="evenodd" d="M14.8744 26.7304C15.0375 26.5394 15.3158 26.4955 15.5301 26.627L17.2273 27.6682C17.4673 27.8154 17.5421 28.1288 17.3945 28.3681C17.2469 28.6075 16.9327 28.6822 16.6928 28.5349L15.3678 27.7221L7.42607 37.0217C7.24339 37.2356 6.92142 37.2613 6.70694 37.0791C6.49247 36.8969 6.46669 36.5758 6.64938 36.3619L14.8744 26.7304Z" fill="#35383C"/>
<path fill-rule="evenodd" clip-rule="evenodd" d="M37.9954 16.7317C38.1651 16.956 38.1203 17.275 37.8954 17.4443L24.5786 27.4662C24.3537 27.6354 24.0339 27.5908 23.8642 27.3665C23.6945 27.1422 23.7392 26.8231 23.9641 26.6539L37.2809 16.632C37.5058 16.4627 37.8257 16.5074 37.9954 16.7317Z" fill="#35383C"/>
<path fill-rule="evenodd" clip-rule="evenodd" d="M44.4379 16.2997C44.5584 16.0458 44.8626 15.9374 45.1172 16.0576L50.0784 18.4004C50.333 18.5206 50.4417 18.824 50.3211 19.078C50.2006 19.3319 49.8964 19.4403 49.6418 19.3201L44.6806 16.9773C44.426 16.8571 44.3173 16.5537 44.4379 16.2997Z" fill="#35383C"/>
<path fill-rule="evenodd" clip-rule="evenodd" d="M63.6487 9.76164C63.8585 9.94927 63.876 10.2709 63.6879 10.4801L56.8989 18.0291C56.7108 18.2383 56.3883 18.2557 56.1785 18.0681C55.9688 17.8805 55.9513 17.5588 56.1394 17.3496L62.9284 9.80066C63.1165 9.59148 63.439 9.57401 63.6487 9.76164Z" fill="#35383C"/>
</svg>
