<svg width="178" height="100" viewBox="0 0 178 100" fill="none" xmlns="http://www.w3.org/2000/svg">
<path d="M143.212 43.5701C145.819 43.5701 147.933 41.4422 147.933 38.8173C147.933 36.1924 145.819 34.0645 143.212 34.0645C140.604 34.0645 138.49 36.1924 138.49 38.8173C138.49 41.4422 140.604 43.5701 143.212 43.5701Z" fill="#17DBA7"/>
<path d="M147.945 43.9031C146.713 45.4175 144.841 46.3833 142.745 46.3833C140.814 46.3833 139.074 45.5605 137.848 44.2479C135.808 45.4684 134.214 47.3629 133.369 49.6257C135.841 52.2469 139.335 53.8809 143.21 53.8809C147.083 53.8809 150.579 52.2469 153.051 49.6276C152.12 47.1376 150.285 45.0923 147.945 43.9031Z" fill="#17DBA7"/>
<path d="M130.175 68.6763C132.783 68.6763 134.897 66.5484 134.897 63.9235C134.897 61.2986 132.783 59.1707 130.175 59.1707C127.567 59.1707 125.453 61.2986 125.453 63.9235C125.453 66.5484 127.567 68.6763 130.175 68.6763Z" stroke="#35383C" stroke-width="1.18343" stroke-miterlimit="10" stroke-linecap="round" stroke-linejoin="round"/>
<path d="M134.909 69.0093C133.677 70.5237 131.804 71.4895 129.708 71.4895C127.777 71.4895 126.037 70.6667 124.811 69.3541C122.771 70.5746 121.177 72.4691 120.332 74.7318C122.804 77.3531 126.298 78.987 130.173 78.987C134.046 78.987 137.542 77.3531 140.014 74.7338C139.084 72.2438 137.246 70.2004 134.909 69.0093Z" stroke="#35383C" stroke-width="1.18343" stroke-miterlimit="10" stroke-linecap="round" stroke-linejoin="round"/>
<path d="M27.4037 40.8548L31.6896 30.4343C31.746 30.2972 31.89 30.2051 32.0477 30.2051H90.8489C91.0065 30.2051 91.1506 30.2972 91.207 30.4343L95.4929 40.8548H27.4037Z" fill="#F2F2F2"/>
<path d="M57.0777 61.543H43.5603V83.6869H57.0777V61.543Z" stroke="#35383C" stroke-width="1.18343" stroke-miterlimit="10" stroke-linecap="round" stroke-linejoin="round"/>
<path d="M52.7433 75.2275C54.0118 75.2275 55.04 74.1925 55.04 72.9158C55.04 71.639 54.0118 70.604 52.7433 70.604C51.4749 70.604 50.4467 71.639 50.4467 72.9158C50.4467 74.1925 51.4749 75.2275 52.7433 75.2275Z" stroke="#35383C" stroke-width="1.18343" stroke-miterlimit="10" stroke-linecap="round" stroke-linejoin="round"/>
<path d="M99.3779 43.4663H23.5208L29.2917 29.4351C29.751 28.3203 30.839 27.5916 32.0477 27.5916H90.849C92.0577 27.5916 93.1457 28.3203 93.605 29.4351L99.3779 43.4663Z" stroke="#35383C" stroke-width="1.18343" stroke-miterlimit="10" stroke-linecap="round" stroke-linejoin="round"/>
<path d="M54.8103 33.7489L55.5674 27.895" stroke="#35383C" stroke-width="1.18343" stroke-miterlimit="10" stroke-linecap="round" stroke-linejoin="round"/>
<path d="M43.1049 27.895L38.9436 42.8" stroke="#35383C" stroke-width="1.18343" stroke-miterlimit="10" stroke-linecap="round" stroke-linejoin="round"/>
<path d="M68.8317 38.7764L69.0205 42.8004" stroke="#35383C" stroke-width="1.18343" stroke-miterlimit="10" stroke-linecap="round" stroke-linejoin="round"/>
<path d="M68.3179 27.7935L68.5729 33.2476" stroke="#35383C" stroke-width="1.18343" stroke-miterlimit="10" stroke-linecap="round" stroke-linejoin="round"/>
<path d="M78.9335 27.5916L83.774 43" stroke="#35383C" stroke-width="1.18343" stroke-miterlimit="10" stroke-linecap="round" stroke-linejoin="round"/>
<path d="M37.1277 61.635H32.5596V67.0147H37.1257C38.601 67.0147 39.798 65.8099 39.798 64.3249C39.8 62.8379 38.603 61.635 37.1277 61.635Z" stroke="#35383C" stroke-width="1.18343" stroke-miterlimit="10" stroke-linecap="round" stroke-linejoin="round"/>
<path d="M64.9331 78.6517H69.4992V73.272H64.9331C63.4578 73.272 62.2607 74.4768 62.2607 75.9618C62.2588 77.4468 63.4558 78.6517 64.9331 78.6517Z" stroke="#35383C" stroke-width="1.18343" stroke-miterlimit="10" stroke-linecap="round" stroke-linejoin="round"/>
<path d="M89.615 53.4067V60.1853" stroke="#35383C" stroke-width="1.18343" stroke-miterlimit="10" stroke-linecap="round" stroke-linejoin="round"/>
<path d="M69.696 83.6868H32.5596V53.3284" stroke="#35383C" stroke-width="1.18343" stroke-miterlimit="10" stroke-linecap="round" stroke-linejoin="round"/>
<path d="M78.9333 26.0065H43.2548V23.2794C43.2548 20.2546 45.6916 17.8018 48.6968 17.8018H73.4913C76.4965 17.8018 78.9333 20.2546 78.9333 23.2794V26.0065Z" fill="#F2F2F2"/>
<path d="M31.0745 53.4067C26.9035 53.4067 23.5208 50.0038 23.5208 45.8034V43.5034H38.6283V45.8034C38.6283 50.0038 35.2475 53.4067 31.0745 53.4067Z" stroke="#35383C" stroke-width="1.18343" stroke-miterlimit="10" stroke-linecap="round" stroke-linejoin="round"/>
<path d="M91.8009 51.8395C88.4941 51.8395 85.8042 49.132 85.8042 45.8035V45.0708H97.7976V45.8035C97.7976 49.132 95.1078 51.8395 91.8009 51.8395Z" fill="#F2F2F2"/>
<path d="M46.4974 53.4067C42.3244 53.4067 38.9436 50.0018 38.9436 45.8034V43.5034H54.0512V45.8034C54.0531 50.0038 50.6704 53.4067 46.4974 53.4067Z" stroke="#35383C" stroke-width="1.18343" stroke-miterlimit="10" stroke-linecap="round" stroke-linejoin="round"/>
<path d="M61.6073 53.4067C57.4343 53.4067 54.0535 50.0018 54.0535 45.8034V43.5034H69.161V45.8034C69.161 50.0038 65.7783 53.4067 61.6073 53.4067Z" stroke="#35383C" stroke-width="1.18343" stroke-miterlimit="10" stroke-linecap="round" stroke-linejoin="round"/>
<path d="M76.7147 53.4067C72.5417 53.4067 69.1609 50.0018 69.1609 45.8034V43.5034H84.2685V45.8034C84.2704 50.0038 80.8877 53.4067 76.7147 53.4067Z" stroke="#35383C" stroke-width="1.18343" stroke-miterlimit="10" stroke-linecap="round" stroke-linejoin="round"/>
<path d="M91.8242 53.4067C87.6512 53.4067 84.2704 50.0018 84.2704 45.8034V43.5034H99.378V45.8034C99.378 50.0038 95.9952 53.4067 91.8242 53.4067Z" stroke="#35383C" stroke-width="1.18343" stroke-miterlimit="10" stroke-linecap="round" stroke-linejoin="round"/>
<path d="M126.049 43.9713C126.049 34.4304 133.733 26.6978 143.21 26.6978C152.687 26.6978 160.371 34.4323 160.371 43.9713C160.371 53.5102 152.687 61.2448 143.21 61.2448" stroke="#35383C" stroke-width="1.18343" stroke-miterlimit="10" stroke-linecap="round" stroke-linejoin="round"/>
<path d="M147.334 69.0799C147.334 78.6208 139.65 86.3534 130.173 86.3534C120.696 86.3534 113.012 78.6188 113.012 69.0799C113.012 59.541 120.696 51.8064 130.173 51.8064" stroke="#35383C" stroke-width="1.18343" stroke-miterlimit="10" stroke-linecap="round" stroke-linejoin="round"/>
<path d="M143.295 23.3675C143.295 19.4728 140.158 16.3147 136.289 16.3147H116.241C112.372 16.3147 109.234 19.4728 109.234 23.3675V44.7219C109.234 48.6166 106.097 51.7747 102.227 51.7747H101.254" stroke="#17DBA7" stroke-width="1.18343" stroke-miterlimit="10" stroke-linecap="round" stroke-linejoin="round"/>
<path d="M85.5939 84.9151C85.5939 84.9151 81.8083 85.5519 78.805 84.9916C76.5142 84.5645 74.9065 83.3263 74.4258 81.2634C73.3105 76.4949 79.6459 69.7124 79.6459 69.7124C79.6459 69.7124 77.5866 73.7031 83.7137 77.2432C87.624 79.5041 85.5939 84.9151 85.5939 84.9151Z" fill="#F2F2F2"/>
<path d="M88.5873 87.4935C84.9729 87.7462 78.8322 87.6463 77.1447 87.3289C74.6962 86.8685 72.6213 85.4521 71.9207 81.6083C70.6069 74.4085 79.2195 67.3557 79.2195 67.3557" stroke="#35383C" stroke-width="1.18343" stroke-miterlimit="10" stroke-linecap="round" stroke-linejoin="round"/>
<path d="M90.3952 87.3272C92.8438 86.8668 94.9186 85.4504 95.6193 81.6066C96.9331 74.4068 88.3204 67.354 88.3204 67.354" stroke="#17DBA7" stroke-width="1.18343" stroke-miterlimit="10" stroke-linecap="round" stroke-linejoin="round"/>
<path d="M86.2692 66.5646H81.158C80.3367 66.5646 79.671 65.8946 79.671 65.0678C79.671 64.2411 80.3367 63.571 81.158 63.571H86.2692C87.0905 63.571 87.7562 64.2411 87.7562 65.0678C87.7562 65.8946 87.0905 66.5646 86.2692 66.5646Z" fill="#17DBA7"/>
<path d="M81.9578 62.5718L80.4319 58.2715C80.4319 58.2715 81.6289 60.0857 83.7115 58.5791C86.1522 56.8139 86.9911 58.2715 86.9911 58.2715L85.4651 62.5718" stroke="#35383C" stroke-width="1.18343" stroke-miterlimit="10" stroke-linecap="round" stroke-linejoin="round"/>
<path d="M83.2522 81.4731C81.6387 81.2889 80.9711 80.0567 80.7765 79.4572L82.5107 78.5893C82.7403 79.0908 83.2016 79.5414 83.7855 79.5414C84.2838 79.5414 84.5388 79.322 84.5388 78.9439C84.5388 77.8076 81.0198 77.9056 81.0198 75.1706C81.0198 73.8149 81.882 72.8746 83.2522 72.6786V71.9832H84.4531V72.6924C85.8 72.9608 86.3586 74.0481 86.5532 74.6103L84.8307 75.4038C84.6614 75.0257 84.4064 74.5613 83.7622 74.5613C83.3612 74.5613 83.0946 74.8062 83.0946 75.1354C83.0946 76.2952 86.6369 76.1737 86.6369 78.7872C86.6369 80.1311 85.8234 81.144 84.4531 81.4261V82.3919H83.2522V81.4731Z" fill="#17DBA7"/>
</svg>
