<svg width="37" height="37" viewBox="0 0 37 37" fill="none" xmlns="http://www.w3.org/2000/svg">
<path d="M15.7913 25.1508L9.25 18.6079L11.4299 16.428L15.7913 20.7879L24.511 12.0667L26.6924 14.2481L15.7913 25.1477V25.1508Z" fill="#5CC691"/>
<path fill-rule="evenodd" clip-rule="evenodd" d="M1.5415 18.5C1.5415 9.1344 9.13421 1.54169 18.4998 1.54169C27.8655 1.54169 35.4582 9.1344 35.4582 18.5C35.4582 27.8656 27.8655 35.4584 18.4998 35.4584C9.13421 35.4584 1.5415 27.8656 1.5415 18.5ZM18.4998 32.375C16.6777 32.375 14.8735 32.0161 13.1901 31.3189C11.5067 30.6216 9.97714 29.5995 8.68873 28.3111C7.40032 27.0227 6.37829 25.4931 5.68101 23.8098C4.98372 22.1264 4.62484 20.3221 4.62484 18.5C4.62484 16.6779 4.98372 14.8737 5.68101 13.1903C6.37829 11.5069 7.40032 9.97733 8.68873 8.68891C9.97714 7.4005 11.5067 6.37848 13.1901 5.68119C14.8735 4.98391 16.6777 4.62502 18.4998 4.62502C22.1797 4.62502 25.7089 6.08685 28.3109 8.68891C30.913 11.291 32.3748 14.8201 32.3748 18.5C32.3748 22.1799 30.913 25.7091 28.3109 28.3111C25.7089 30.9132 22.1797 32.375 18.4998 32.375Z" fill="#ECF6E8"/>
</svg>
