<svg width="171" height="142" viewBox="0 0 171 142" fill="none" xmlns="http://www.w3.org/2000/svg">
<path d="M43.179 56.1323C43.179 64.9959 41.6913 71.4903 38.7187 75.6142C35.7446 79.7381 31.1913 81.8 25.0614 81.8C19.0682 81.8 14.5491 79.6466 11.5067 75.3397C8.4629 71.0329 6.94238 64.6313 6.94238 56.1323C6.94238 47.2223 8.42871 40.6883 11.4027 36.5303C14.3768 32.3736 18.9301 30.2939 25.06 30.2939C31.0313 30.2939 35.5436 32.4583 38.597 36.7884C41.6517 41.1171 43.179 47.5651 43.179 56.1323ZM20.4287 56.1323C20.4287 61.7979 20.7829 65.6937 21.4926 67.8171C22.2008 69.9418 23.3905 71.0042 25.0614 71.0042C26.7542 71.0042 27.9493 69.9077 28.6466 67.7147C29.344 65.5216 29.6927 61.6613 29.6927 56.1323C29.6927 50.5815 29.3371 46.6911 28.6288 44.464C27.9192 42.2368 26.7296 41.1225 25.06 41.1225C23.3905 41.1225 22.1995 42.1972 21.4912 44.3438C20.7829 46.4918 20.4287 50.4217 20.4287 56.1323Z" stroke="#244C71" stroke-width="1.57947" stroke-miterlimit="10" stroke-linecap="round" stroke-linejoin="round"/>
<path d="M55.5149 81.2169C53.2163 80.8291 50.7277 80.1204 48.0518 79.0922V67.8526C50.2478 68.9723 52.4834 69.7998 54.7601 70.3365C57.0367 70.8731 59.1356 71.1421 61.0568 71.1421C64.0308 71.1421 66.1981 70.7257 67.56 69.8913C68.9205 69.057 69.6015 67.7502 69.6015 65.9682C69.6015 64.5972 69.246 63.5416 68.5377 62.7988C67.828 62.0573 66.6849 61.4961 65.1056 61.1192C63.5276 60.7423 61.4684 60.5539 58.9292 60.5539H55.8403V50.3767H58.9975C65.8836 50.3767 69.3266 48.6179 69.3266 45.0989C69.3266 43.7744 68.8166 42.7912 67.7993 42.1521C66.7806 41.5131 65.4146 41.1922 63.6986 41.1922C60.4962 41.1922 57.1789 42.2668 53.7468 44.4134L48.1188 35.3669C50.7728 33.5398 53.4884 32.2371 56.2683 31.4601C59.0481 30.6831 62.2341 30.2939 65.8262 30.2939C71.0194 30.2939 75.0915 31.3222 78.0422 33.3787C80.993 35.4351 82.4684 38.2672 82.4684 41.8777C82.4684 44.9842 81.5195 47.6524 79.6202 49.8796C77.7209 52.1068 74.9752 53.7236 71.3845 54.7286V54.9348C75.0942 55.4004 77.9821 56.4355 80.0468 58.04" stroke="#244C71" stroke-width="1.57947" stroke-miterlimit="10" stroke-linecap="round" stroke-linejoin="round"/>
<path d="M122.808 106.564H96.6772C94.2447 106.564 92.2729 104.594 92.2729 102.165V77.6991C92.2729 75.2699 94.2447 73.3008 96.6772 73.3008H122.808C125.24 73.3008 127.212 75.2699 127.212 77.6991V102.165C127.212 104.594 125.24 106.564 122.808 106.564Z" fill="#F2F2F2"/>
<path d="M107.995 81.7891L104.326 79.4636L100.658 81.7891L96.9891 79.4636L93.3218 81.7891V77.9506V74.1135V70.275V66.4365H96.9891H100.658H104.326H107.995V70.275V74.1135V77.9506V81.7891Z" fill="#17DBA7"/>
<path d="M93.3218 91.7925L96.9891 94.1193L100.658 91.7925L104.326 94.1193L107.995 91.7925V95.631V99.4694V103.307V107.145H104.326H100.658H96.9891H93.3218V103.307V99.4694V95.631V91.7925Z" fill="#17DBA7"/>
<path d="M112.659 107.144H80.2467C79.2991 107.144 78.5293 106.377 78.5293 105.429V68.1504C78.5293 67.2041 79.2978 66.4353 80.2467 66.4353H127.72C128.446 66.4353 129.151 66.1882 129.717 65.7362L137.116 59.8248C138.24 58.9263 139.905 59.7265 139.905 61.163V72.3467" stroke="#244C71" stroke-width="1.57947" stroke-miterlimit="10" stroke-linecap="round" stroke-linejoin="round"/>
<path d="M137.695 59.4595H128.144" stroke="#244C71" stroke-width="1.57947" stroke-miterlimit="10" stroke-linecap="round" stroke-linejoin="round"/>
<path d="M128.144 66.4365V72.453" stroke="#244C71" stroke-width="1.57947" stroke-miterlimit="10" stroke-linecap="round" stroke-linejoin="round"/>
<path d="M83.3054 111.447H95.8825" stroke="#244C71" stroke-width="1.57947" stroke-miterlimit="10" stroke-linecap="round" stroke-linejoin="round"/>
<path d="M99.4946 111.447H101.125" stroke="#244C71" stroke-width="1.57947" stroke-miterlimit="10" stroke-linecap="round" stroke-linejoin="round"/>
<path d="M117.312 66.437L122.749 62.4674V39.3232L115.339 44.6856C114.53 45.2714 114.051 46.2082 114.051 47.2064V60.9695" stroke="#244C71" stroke-width="1.57947" stroke-miterlimit="10" stroke-linecap="round" stroke-linejoin="round"/>
<path d="M122.786 39.3379H99.1415C98.6068 39.3379 98.0777 39.4567 97.595 39.6847L87.1196 44.6402C85.8575 45.2369 85.0535 46.5069 85.0535 47.9011V66.4366" stroke="#244C71" stroke-width="1.57947" stroke-miterlimit="10" stroke-linecap="round" stroke-linejoin="round"/>
<path d="M78.4719 107.086H57.6619C56.419 107.086 55.4126 106.08 55.4126 104.84V88.0399C55.4126 87.2943 55.7818 86.5979 56.3998 86.18L63.4623 81.3966C63.8356 81.144 64.2745 81.0088 64.7257 81.0088H72.7071" stroke="#244C71" stroke-width="1.57947" stroke-miterlimit="10" stroke-linecap="round" stroke-linejoin="round"/>
<path d="M60.1284 87.9536H78.1804" stroke="#244C71" stroke-width="1.57947" stroke-miterlimit="10" stroke-linecap="round" stroke-linejoin="round"/>
<path d="M90.4097 47.0137H108.694" stroke="#244C71" stroke-width="1.57947" stroke-miterlimit="10" stroke-linecap="round" stroke-linejoin="round"/>
<path d="M146.752 76.7447C146.191 76.2491 145.458 75.9541 144.669 75.9541H130.89C129.442 75.9541 128.181 76.9414 127.837 78.3465L125.916 86.1668" stroke="#244C71" stroke-width="1.57947" stroke-miterlimit="10" stroke-linecap="round" stroke-linejoin="round"/>
<path d="M143.808 86.167H123.608C119.779 86.167 116.675 89.2667 116.675 93.0902V101.141C116.675 103.311 118.436 105.071 120.61 105.071" stroke="#244C71" stroke-width="1.57947" stroke-miterlimit="10" stroke-linecap="round" stroke-linejoin="round"/>
<path d="M154.514 105.07C156.687 105.07 158.45 103.311 158.45 101.14V98.7476" stroke="#244C71" stroke-width="1.57947" stroke-miterlimit="10" stroke-linecap="round" stroke-linejoin="round"/>
<path d="M131.182 105.07H144.028" stroke="#244C71" stroke-width="1.57947" stroke-miterlimit="10" stroke-linecap="round" stroke-linejoin="round"/>
<path d="M148.111 110.503H150.294C151.314 110.503 152.14 109.678 152.14 108.659V102.898H146.265V108.659C146.265 109.678 147.093 110.503 148.111 110.503Z" stroke="#244C71" stroke-width="1.57947" stroke-miterlimit="10" stroke-linecap="round" stroke-linejoin="round"/>
<path d="M124.396 110.503H126.578C127.598 110.503 128.424 109.678 128.424 108.659V102.898H122.55V108.659C122.55 109.678 123.377 110.503 124.396 110.503Z" stroke="#244C71" stroke-width="1.57947" stroke-miterlimit="10" stroke-linecap="round" stroke-linejoin="round"/>
<path d="M125.379 97.9012C127.061 97.9012 128.425 96.539 128.425 94.8588C128.425 93.1785 127.061 91.8164 125.379 91.8164C123.696 91.8164 122.332 93.1785 122.332 94.8588C122.332 96.539 123.696 97.9012 125.379 97.9012Z" stroke="#244C71" stroke-width="1.57947" stroke-miterlimit="10" stroke-linecap="round" stroke-linejoin="round"/>
<path d="M157.123 79.2876C157.603 80.0386 157.88 80.9317 157.88 81.8889C157.88 84.5667 155.708 86.7365 153.026 86.7365C150.345 86.7365 148.172 84.5667 148.172 81.8889" stroke="#244C71" stroke-width="1.57947" stroke-miterlimit="10" stroke-linecap="round" stroke-linejoin="round"/>
<path d="M161.815 94.1395C162.284 93.7599 162.727 93.3503 163.142 92.9133C162.187 90.3734 160.298 88.2896 157.894 87.0757C156.628 88.6201 154.704 89.606 152.551 89.606C150.565 89.606 148.778 88.7689 147.517 87.4294C145.421 88.6733 143.783 90.6056 142.915 92.9146C145.455 95.587 149.047 97.2529 153.029 97.2529C154.736 97.2529 156.372 96.947 157.883 96.3858" stroke="#244C71" stroke-width="1.57947" stroke-miterlimit="10" stroke-linecap="round" stroke-linejoin="round"/>
<path d="M157.334 77.9969H149.038V74.9477C149.038 73.9168 149.875 73.0811 150.908 73.0811H155.465C156.497 73.0811 157.334 73.9168 157.334 74.9477V77.9969Z" fill="#17DBA7"/>
<path d="M149.038 77.9966L146.539 79.1341C146.282 79.2515 146.365 79.6352 146.648 79.6352H151.925C153.321 79.6352 154.698 79.3116 155.946 78.6889L157.334 77.9966" fill="#17DBA7"/>
</svg>
