<svg width="170" height="141" viewBox="0 0 170 141" fill="none" xmlns="http://www.w3.org/2000/svg">
<path d="M37.9816 65.9199C35.2449 68.4589 31.5379 69.7277 26.8579 69.7277C21.1854 69.7277 16.9103 67.6901 14.0314 63.6149C11.1524 59.541 9.71362 53.4837 9.71362 45.4418C9.71362 37.011 11.1201 30.8284 13.9343 26.8941C16.7486 22.961 21.056 20.9932 26.8579 20.9932C32.5083 20.9932 36.7782 23.0411 39.6675 27.1383C42.5568 31.2354 44.0021 37.3353 44.0021 45.4418C44.0021 46.9316 43.9581 48.3503 43.8688 49.6979M22.4754 45.4418C22.4754 50.8026 22.8105 54.4889 23.4821 56.4981C24.1523 58.5086 25.278 59.5138 26.8592 59.5138C28.461 59.5138 29.5919 58.4763 30.2518 56.4012C30.9117 54.3261 31.2416 50.6734 31.2416 45.4418C31.2416 40.1895 30.9052 36.5084 30.2349 34.401C29.5634 32.2937 28.4377 31.2393 26.8579 31.2393C25.278 31.2393 24.151 32.2562 23.4808 34.2873C22.8105 36.3198 22.4754 40.0384 22.4754 45.4418Z" stroke="#244C71" stroke-width="1.56834" stroke-miterlimit="10" stroke-linecap="round" stroke-linejoin="round"/>
<path d="M47.4788 50.5005L67.2212 21.6743H79.0733V50.3377H84.3007V59.903H79.0733V69.0793H66.4099V59.903M66.4086 50.3377V44.8257C66.4086 43.7882 66.4461 42.3889 66.5225 40.6265C66.5975 38.8654 66.657 37.9403 66.701 37.8537H66.3439C65.6077 39.5192 64.7744 41.0748 63.8441 42.5233L58.5843 50.3377H66.4086Z" stroke="#244C71" stroke-width="1.56834" stroke-miterlimit="10" stroke-linecap="round" stroke-linejoin="round"/>
<path d="M56.4214 58.1782H41.2827V79.8851H56.4214V58.1782Z" fill="#F2F2F2"/>
<path d="M40.7649 78.9243V80.0148L62.7613 79.8856V65.1934" stroke="#244C71" stroke-width="1.56834" stroke-miterlimit="10" stroke-linecap="round" stroke-linejoin="round"/>
<path d="M45.3333 53.915L40.7645 54.0442V75.1968" stroke="#244C71" stroke-width="1.56834" stroke-miterlimit="10" stroke-linecap="round" stroke-linejoin="round"/>
<path d="M50.6532 53.9146H48.9026" stroke="#244C71" stroke-width="1.56834" stroke-miterlimit="10" stroke-linecap="round" stroke-linejoin="round"/>
<path d="M62.7615 66.3185V53.9146H53.8582" stroke="#244C71" stroke-width="1.56834" stroke-miterlimit="10" stroke-linecap="round" stroke-linejoin="round"/>
<path d="M45.1646 61.9253H58.4918" stroke="#244C71" stroke-width="1.56834" stroke-miterlimit="10" stroke-linecap="round" stroke-linejoin="round"/>
<path d="M45.1646 66.2549H58.4918" stroke="#244C71" stroke-width="1.56834" stroke-miterlimit="10" stroke-linecap="round" stroke-linejoin="round"/>
<path d="M45.1646 70.5835H52.4104" stroke="#244C71" stroke-width="1.56834" stroke-miterlimit="10" stroke-linecap="round" stroke-linejoin="round"/>
<path d="M56.4199 98.1587H41.2812V119.866H56.4199V98.1587Z" fill="#F2F2F2"/>
<path d="M40.7634 118.903V119.995L62.7598 119.866V105.172" stroke="#244C71" stroke-width="1.56834" stroke-miterlimit="10" stroke-linecap="round" stroke-linejoin="round"/>
<path d="M45.3322 93.894L40.7634 94.0233V115.175" stroke="#244C71" stroke-width="1.56834" stroke-miterlimit="10" stroke-linecap="round" stroke-linejoin="round"/>
<path d="M50.6518 93.8945H48.9011" stroke="#244C71" stroke-width="1.56834" stroke-miterlimit="10" stroke-linecap="round" stroke-linejoin="round"/>
<path d="M62.76 106.298V93.8945H53.8567" stroke="#244C71" stroke-width="1.56834" stroke-miterlimit="10" stroke-linecap="round" stroke-linejoin="round"/>
<path d="M45.1631 101.905H58.4903" stroke="#244C71" stroke-width="1.56834" stroke-miterlimit="10" stroke-linecap="round" stroke-linejoin="round"/>
<path d="M45.1631 106.235H58.4903" stroke="#244C71" stroke-width="1.56834" stroke-miterlimit="10" stroke-linecap="round" stroke-linejoin="round"/>
<path d="M45.1631 110.563H52.4089" stroke="#244C71" stroke-width="1.56834" stroke-miterlimit="10" stroke-linecap="round" stroke-linejoin="round"/>
<path d="M124.077 58.1797H108.939V79.8866H124.077V58.1797Z" fill="#F2F2F2"/>
<path d="M108.421 78.9252V80.0157L130.417 79.8865V65.1943" stroke="#244C71" stroke-width="1.56834" stroke-miterlimit="10" stroke-linecap="round" stroke-linejoin="round"/>
<path d="M112.991 53.915L108.421 54.0442V75.1968" stroke="#244C71" stroke-width="1.56834" stroke-miterlimit="10" stroke-linecap="round" stroke-linejoin="round"/>
<path d="M118.309 53.9155H116.558" stroke="#244C71" stroke-width="1.56834" stroke-miterlimit="10" stroke-linecap="round" stroke-linejoin="round"/>
<path d="M130.417 66.3195V53.9155H121.514" stroke="#244C71" stroke-width="1.56834" stroke-miterlimit="10" stroke-linecap="round" stroke-linejoin="round"/>
<path d="M112.82 61.9268H126.148" stroke="#244C71" stroke-width="1.56834" stroke-miterlimit="10" stroke-linecap="round" stroke-linejoin="round"/>
<path d="M112.82 66.2559H126.148" stroke="#244C71" stroke-width="1.56834" stroke-miterlimit="10" stroke-linecap="round" stroke-linejoin="round"/>
<path d="M112.82 70.584H120.066" stroke="#244C71" stroke-width="1.56834" stroke-miterlimit="10" stroke-linecap="round" stroke-linejoin="round"/>
<path d="M124.077 98.1572H108.938V119.864H124.077V98.1572Z" fill="#F2F2F2"/>
<path d="M108.42 118.902V119.994L130.417 119.864V105.171" stroke="#244C71" stroke-width="1.56834" stroke-miterlimit="10" stroke-linecap="round" stroke-linejoin="round"/>
<path d="M112.99 93.8936L108.42 94.0228V115.174" stroke="#244C71" stroke-width="1.56834" stroke-miterlimit="10" stroke-linecap="round" stroke-linejoin="round"/>
<path d="M118.309 93.8936H116.558" stroke="#244C71" stroke-width="1.56834" stroke-miterlimit="10" stroke-linecap="round" stroke-linejoin="round"/>
<path d="M130.417 106.297V93.8936H121.514" stroke="#244C71" stroke-width="1.56834" stroke-miterlimit="10" stroke-linecap="round" stroke-linejoin="round"/>
<path d="M112.82 101.904H126.147" stroke="#244C71" stroke-width="1.56834" stroke-miterlimit="10" stroke-linecap="round" stroke-linejoin="round"/>
<path d="M112.82 106.233H126.147" stroke="#244C71" stroke-width="1.56834" stroke-miterlimit="10" stroke-linecap="round" stroke-linejoin="round"/>
<path d="M112.82 110.562H120.066" stroke="#244C71" stroke-width="1.56834" stroke-miterlimit="10" stroke-linecap="round" stroke-linejoin="round"/>
<path d="M153.388 76.8696H138.25V98.5765H153.388V76.8696Z" fill="#F2F2F2"/>
<path d="M137.732 97.6147V98.7065L159.728 98.5773V83.8838" stroke="#244C71" stroke-width="1.56834" stroke-miterlimit="10" stroke-linecap="round" stroke-linejoin="round"/>
<path d="M142.302 72.6055L137.731 72.7347V93.886" stroke="#244C71" stroke-width="1.56834" stroke-miterlimit="10" stroke-linecap="round" stroke-linejoin="round"/>
<path d="M147.622 72.6064H145.87" stroke="#244C71" stroke-width="1.56834" stroke-miterlimit="10" stroke-linecap="round" stroke-linejoin="round"/>
<path d="M159.729 85.0104V72.6064H150.825" stroke="#244C71" stroke-width="1.56834" stroke-miterlimit="10" stroke-linecap="round" stroke-linejoin="round"/>
<path d="M142.132 80.6167H155.459" stroke="#244C71" stroke-width="1.56834" stroke-miterlimit="10" stroke-linecap="round" stroke-linejoin="round"/>
<path d="M142.132 84.9453H155.459" stroke="#244C71" stroke-width="1.56834" stroke-miterlimit="10" stroke-linecap="round" stroke-linejoin="round"/>
<path d="M142.132 89.2734H149.377" stroke="#244C71" stroke-width="1.56834" stroke-miterlimit="10" stroke-linecap="round" stroke-linejoin="round"/>
<path d="M77.1345 88.0675C77.1345 83.5737 80.782 79.9313 85.2822 79.9313M79.6764 93.9722C81.1369 95.3553 83.1102 96.2037 85.2822 96.2037C87.851 96.2037 90.1419 95.0169 91.6352 93.1624M91.6352 98.7013L94.6397 101.046L98.2782 97.4131L95.9297 94.4129C96.5391 93.3947 97.0075 92.281 97.3051 91.1L101.09 90.6362V85.4976L97.3064 85.035C97.0088 83.8541 96.5417 82.7416 95.931 81.7221L98.2794 78.7219L94.641 75.0886L91.6365 77.4337C90.6169 76.8252 89.5016 76.3574 88.319 76.0603L87.8557 72.2822H82.7099L82.2467 76.0603C81.064 76.3574 79.95 76.8252 78.9291 77.4337L75.9247 75.0886L72.2862 78.7219L74.6346 81.7221C74.0252 82.7403 73.5568 83.8541 73.2592 85.035L69.4758 85.4976V90.6362L73.2592 91.0987C73.5568 92.2797 74.0239 93.3934 74.6346 94.4116L72.2862 97.4118L75.9247 101.045L78.9291 98.7C79.9487 99.3086 81.064 99.7763 82.2467 100.073L82.7099 103.852H87.8557L91.6352 98.7013Z" stroke="#244C71" stroke-width="1.56834" stroke-miterlimit="10" stroke-linecap="round" stroke-linejoin="round"/>
<path d="M105.16 67.2944L100.403 72.6062" stroke="#244C71" stroke-width="1.56834" stroke-miterlimit="10" stroke-linecap="round" stroke-linejoin="round"/>
<path d="M105.441 107.547L100.123 102.796" stroke="#244C71" stroke-width="1.56834" stroke-miterlimit="10" stroke-linecap="round" stroke-linejoin="round"/>
<path d="M66.7714 107.512L71.5278 102.201" stroke="#244C71" stroke-width="1.56834" stroke-miterlimit="10" stroke-linecap="round" stroke-linejoin="round"/>
<path d="M125.885 86.8188H133.005" stroke="#244C71" stroke-width="1.56834" stroke-miterlimit="10" stroke-linecap="round" stroke-linejoin="round"/>
</svg>
