<svg width="174" height="145" viewBox="0 0 174 145" fill="none" xmlns="http://www.w3.org/2000/svg">
<path d="M56.7185 57.0164C56.7185 67.1801 55.0117 74.627 51.6012 79.3558C48.1892 84.0845 42.9653 86.4489 35.9325 86.4489C29.0567 86.4489 23.872 83.9796 20.3815 79.0411C16.8895 74.1025 15.145 66.762 15.145 57.0164C15.145 46.7995 16.8503 39.3071 20.2623 34.5392C23.6743 29.7729 28.8983 27.3882 35.931 27.3882C42.7817 27.3882 47.9586 29.87 51.4616 34.8352C54.9662 39.7988 56.7185 47.1925 56.7185 57.0164ZM30.6176 57.0164C30.6176 63.5129 31.0239 67.9802 31.8381 70.415C32.6507 72.8514 34.0155 74.0696 35.9325 74.0696C37.8747 74.0696 39.2457 72.8123 40.0458 70.2976C40.8459 67.7829 41.2459 63.3564 41.2459 57.0164C41.2459 50.6514 40.838 46.1904 40.0254 43.6366C39.2112 41.0827 37.8464 39.805 35.931 39.805C34.0155 39.805 32.6491 41.0373 31.8365 43.4988C31.0239 45.9618 30.6176 50.4682 30.6176 57.0164Z" stroke="#244C71" stroke-width="1.61283" stroke-miterlimit="10" stroke-linecap="round" stroke-linejoin="round"/>
<path d="M84.0001 86.4473C77.2027 86.4473 71.8877 84.2474 68.0553 79.8459C64.2228 75.4444 62.3074 69.2892 62.3074 61.3772C62.3074 53.3602 63.4557 46.8715 65.7524 41.9064C68.049 36.9427 71.4344 33.2819 75.91 30.9238C80.3841 28.5672 85.903 27.3882 92.4635 27.3882C94.7994 27.3882 97.529 27.6105 100.652 28.0568V40.1981C98.0278 39.7001 95.1806 39.4512 92.1089 39.4512C86.9117 39.4512 83.04 40.5911 80.4955 42.8693C77.9494 45.1491 76.5579 48.8679 76.3226 54.0288H76.7948C79.1573 49.5757 82.949 47.3491 88.1729 47.3491C90.1307 47.3491 91.9207 47.5902 93.5412 48.0709M83.6455 74.1479C85.299 74.1479 86.6434 73.5263 87.6804 72.2815C88.7173 71.0367 89.235 69.0528 89.235 66.3283C89.235 61.6653 87.4247 59.3338 83.8024 59.3338C82.0172 59.3338 80.5676 59.9366 79.4523 61.1407C78.3369 62.3464 77.7784 63.812 77.7784 65.5422C77.7784 68.0569 78.3165 70.1207 79.3926 71.7303C80.4688 73.3431 81.887 74.1479 83.6455 74.1479Z" stroke="#244C71" stroke-width="1.61283" stroke-miterlimit="10" stroke-linecap="round" stroke-linejoin="round"/>
<path d="M138.57 114.085C141.072 114.085 143.099 112.061 143.099 109.564C143.099 107.068 141.072 105.044 138.57 105.044C136.069 105.044 134.042 107.068 134.042 109.564C134.042 112.061 136.069 114.085 138.57 114.085Z" stroke="#244C71" stroke-width="1.61283" stroke-miterlimit="10" stroke-linecap="round" stroke-linejoin="round"/>
<path d="M62.5442 97.2006C61.8696 97.9585 61.4602 98.9559 61.4602 100.05C61.4602 102.421 63.3851 104.342 65.7601 104.342C68.1352 104.342 70.0601 102.421 70.0601 100.05C70.0601 97.6798 68.1352 95.7585 65.7601 95.7585M61.2892 107.527L59.1761 109.176L56.6159 106.621L58.2678 104.511C57.8379 103.796 57.5101 103.013 57.2999 102.181L54.6377 101.856V98.2419L57.2999 97.9162C57.5085 97.0863 57.8379 96.3034 58.2678 95.5863L56.6159 93.4771L59.1761 90.9218L61.2892 92.5705C62.0061 92.1431 62.7905 91.8143 63.6235 91.6044L63.9498 88.9473H67.5705L67.8968 91.6044C68.7282 91.8127 69.5126 92.1415 70.2311 92.5705L72.3442 90.9218L74.9044 93.4771L73.2525 95.5863C73.6823 96.3019 74.0102 97.0848 74.2204 97.9162L76.8826 98.2419V101.856L74.2204 102.181C74.0118 103.011 73.6823 103.794 73.2525 104.511L74.9044 106.621L72.3442 109.176L70.2311 107.527C69.5142 107.956 68.7298 108.283 67.8968 108.493L67.5705 111.15H63.9498L61.2892 107.527Z" stroke="#244C71" stroke-width="1.61283" stroke-miterlimit="10" stroke-linecap="round" stroke-linejoin="round"/>
<path d="M122.397 81.4102H106.51V94.635H122.397V81.4102Z" fill="#F2F2F2"/>
<path d="M135.391 85.3242H123.443V94.6361H135.391V85.3242Z" fill="#F2F2F2"/>
<path d="M118.08 52.3677H97.8748V68.7241H118.08V52.3677Z" stroke="#244C71" stroke-width="1.61283" stroke-miterlimit="10" stroke-linecap="round" stroke-linejoin="round"/>
<path d="M110.714 52.0703H105.25V58.0204H110.714V52.0703Z" fill="#17DBA7"/>
<path d="M92.9563 84.5637V68.7256H122.767V95.6465H92.9563V88.8666" stroke="#244C71" stroke-width="1.61283" stroke-miterlimit="10" stroke-linecap="round" stroke-linejoin="round"/>
<path d="M111.893 68.4028H103.831V78.1954H111.893V68.4028Z" fill="#17DBA7"/>
<path d="M129.934 75.8652H147.611V95.6476H123.174V75.8652H126.317" stroke="#244C71" stroke-width="1.61283" stroke-miterlimit="10" stroke-linecap="round" stroke-linejoin="round"/>
<path d="M138.695 75.5767H132.088V82.7715H138.695V75.5767Z" fill="#17DBA7"/>
<path d="M52.801 105.614C52.2033 106.873 51.8691 108.281 51.8691 109.767C51.8691 115.133 56.2271 119.482 61.6032 119.482H142.496C147.872 119.482 152.23 115.133 152.23 109.767C152.23 104.401 147.872 100.051 142.496 100.051H83.3006" stroke="#244C71" stroke-width="1.61283" stroke-miterlimit="10" stroke-linecap="round" stroke-linejoin="round"/>
<path d="M102.051 114.085C104.552 114.085 106.58 112.061 106.58 109.564C106.58 107.068 104.552 105.044 102.051 105.044C99.5494 105.044 97.5217 107.068 97.5217 109.564C97.5217 112.061 99.5494 114.085 102.051 114.085Z" stroke="#244C71" stroke-width="1.61283" stroke-miterlimit="10" stroke-linecap="round" stroke-linejoin="round"/>
<path d="M132.291 52.9497L125.903 60.3857V64.3363" stroke="#244C71" stroke-width="1.61283" stroke-miterlimit="10" stroke-linecap="round" stroke-linejoin="round"/>
<path d="M141.957 52.9497L148.344 60.3857V64.3363" stroke="#244C71" stroke-width="1.61283" stroke-miterlimit="10" stroke-linecap="round" stroke-linejoin="round"/>
<path d="M141.956 52.9504H131.782V48.4095C131.782 46.1939 133.582 44.3979 135.802 44.3979H137.938C140.158 44.3979 141.957 46.1939 141.957 48.4095V52.9504H141.956Z" stroke="#244C71" stroke-width="1.61283" stroke-miterlimit="10" stroke-linecap="round" stroke-linejoin="round"/>
<path d="M136.871 44.3972V37.0098" stroke="#244C71" stroke-width="1.61283" stroke-miterlimit="10" stroke-linecap="round" stroke-linejoin="round"/>
</svg>
