<svg width="174" height="145" viewBox="0 0 174 145" fill="none" xmlns="http://www.w3.org/2000/svg">
<path d="M148.686 75.9684C151.031 75.9684 152.932 74.0664 152.932 71.72C152.932 69.3737 151.031 67.4717 148.686 67.4717C146.341 67.4717 144.44 69.3737 144.44 71.72C144.44 74.0664 146.341 75.9684 148.686 75.9684Z" fill="#17DBA7"/>
<path d="M152.942 76.2642C151.833 77.6164 150.152 78.4804 148.266 78.4804C146.53 78.4804 144.966 77.7457 143.865 76.5729C142.031 77.6636 140.598 79.3565 139.837 81.3795C142.06 83.722 145.201 85.1822 148.685 85.1822C152.168 85.1822 155.309 83.7235 157.532 81.3811C156.696 79.1557 155.044 77.3289 152.942 76.2642Z" fill="#17DBA7"/>
<path d="M136.964 98.4049C139.309 98.4049 141.21 96.5029 141.21 94.1566C141.21 91.8103 139.309 89.9082 136.964 89.9082C134.618 89.9082 132.717 91.8103 132.717 94.1566C132.717 96.5029 134.618 98.4049 136.964 98.4049Z" stroke="#244C71" stroke-width="1.61283" stroke-miterlimit="10" stroke-linecap="round" stroke-linejoin="round"/>
<path d="M141.219 98.7017C140.111 100.054 138.429 100.918 136.544 100.918C134.808 100.918 133.243 100.183 132.143 99.0104C130.309 100.101 128.875 101.794 128.115 103.817C130.338 106.16 133.479 107.62 136.962 107.62C140.445 107.62 143.586 106.161 145.809 103.819C144.975 101.592 143.323 99.7649 141.219 98.7017Z" stroke="#244C71" stroke-width="1.61283" stroke-miterlimit="10" stroke-linecap="round" stroke-linejoin="round"/>
<path d="M44.568 73.5422L48.4207 64.2317C48.4708 64.1085 48.6016 64.0264 48.743 64.0264H101.61C101.751 64.0264 101.881 64.1085 101.932 64.2317L105.785 73.5422H44.568Z" fill="#F2F2F2"/>
<path d="M71.247 111.818V92.0288H59.093V111.818" stroke="#244C71" stroke-width="1.61283" stroke-miterlimit="10" stroke-linecap="round" stroke-linejoin="round"/>
<path d="M67.349 104.257C68.4893 104.257 69.4137 103.332 69.4137 102.192C69.4137 101.051 68.4893 100.126 67.349 100.126C66.2087 100.126 65.2843 101.051 65.2843 102.192C65.2843 103.332 66.2087 104.257 67.349 104.257Z" stroke="#244C71" stroke-width="1.61283" stroke-miterlimit="10" stroke-linecap="round" stroke-linejoin="round"/>
<path d="M109.277 75.877H41.0769L46.266 63.3387C46.678 62.3424 47.6572 61.6914 48.7442 61.6914H101.611C102.698 61.6914 103.677 62.3424 104.09 63.3387L109.277 75.877Z" stroke="#244C71" stroke-width="1.61283" stroke-miterlimit="10" stroke-linecap="round" stroke-linejoin="round"/>
<path d="M69.2073 67.1909L69.8884 61.96" stroke="#244C71" stroke-width="1.61283" stroke-miterlimit="10" stroke-linecap="round" stroke-linejoin="round"/>
<path d="M58.6837 61.96L54.942 75.28" stroke="#244C71" stroke-width="1.61283" stroke-miterlimit="10" stroke-linecap="round" stroke-linejoin="round"/>
<path d="M81.8138 71.6841L81.9826 75.2799" stroke="#244C71" stroke-width="1.61283" stroke-miterlimit="10" stroke-linecap="round" stroke-linejoin="round"/>
<path d="M81.3534 61.8696L81.5815 66.7432" stroke="#244C71" stroke-width="1.61283" stroke-miterlimit="10" stroke-linecap="round" stroke-linejoin="round"/>
<path d="M90.895 61.6914L95.2479 75.4587" stroke="#244C71" stroke-width="1.61283" stroke-miterlimit="10" stroke-linecap="round" stroke-linejoin="round"/>
<path d="M53.3102 92.1113H49.2036V96.9194H53.3102C54.6375 96.9194 55.7124 95.8425 55.7124 94.5161C55.7124 93.1867 54.6375 92.1113 53.3102 92.1113Z" stroke="#244C71" stroke-width="1.61283" stroke-miterlimit="10" stroke-linecap="round" stroke-linejoin="round"/>
<path d="M78.308 107.318H82.4146V102.51H78.308C76.9807 102.51 75.9058 103.587 75.9058 104.913C75.9058 106.241 76.9807 107.318 78.308 107.318Z" stroke="#244C71" stroke-width="1.61283" stroke-miterlimit="10" stroke-linecap="round" stroke-linejoin="round"/>
<path d="M100.499 84.7583V90.8167" stroke="#244C71" stroke-width="1.61283" stroke-miterlimit="10" stroke-linecap="round" stroke-linejoin="round"/>
<path d="M62.7229 111.818H49.2036V84.6899" stroke="#244C71" stroke-width="1.61283" stroke-miterlimit="10" stroke-linecap="round" stroke-linejoin="round"/>
<path d="M82.591 111.818H65.8971" stroke="#244C71" stroke-width="1.61283" stroke-miterlimit="10" stroke-linecap="round" stroke-linejoin="round"/>
<path d="M90.8955 60.2735H58.8182V57.1948C58.8182 54.8463 60.7218 52.9419 63.0693 52.9419H86.646C88.9934 52.9419 90.897 54.8463 90.897 57.1948V60.2735H90.8955Z" fill="#F2F2F2"/>
<path d="M48.7594 84.7588H46.9775C43.7178 84.7588 41.0769 82.1152 41.0769 78.8555V75.9092H54.6601V78.8555C54.6601 82.1167 52.0176 84.7588 48.7594 84.7588Z" stroke="#244C71" stroke-width="1.61283" stroke-miterlimit="10" stroke-linecap="round" stroke-linejoin="round"/>
<path d="M102.466 83.3594C99.4919 83.3594 97.0745 80.9393 97.0745 77.9656V77.3101H107.859V77.9656C107.857 80.9393 105.438 83.3594 102.466 83.3594Z" fill="#F2F2F2"/>
<path d="M62.6246 84.7588H60.8427C57.5829 84.7588 54.942 82.1152 54.942 78.8555V75.9092H68.5252V78.8555C68.5252 82.1167 65.8843 84.7588 62.6246 84.7588Z" stroke="#244C71" stroke-width="1.61283" stroke-miterlimit="10" stroke-linecap="round" stroke-linejoin="round"/>
<path d="M76.2084 84.7588H74.4265C71.1668 84.7588 68.5259 82.1152 68.5259 78.8555V75.9092H82.1091V78.8555C82.1106 82.1167 79.4681 84.7588 76.2084 84.7588Z" stroke="#244C71" stroke-width="1.61283" stroke-miterlimit="10" stroke-linecap="round" stroke-linejoin="round"/>
<path d="M89.7931 84.7588H88.0112C84.7515 84.7588 82.1106 82.1152 82.1106 78.8555V75.9092H95.6938V78.8555C95.6938 82.1167 93.0513 84.7588 89.7931 84.7588Z" stroke="#244C71" stroke-width="1.61283" stroke-miterlimit="10" stroke-linecap="round" stroke-linejoin="round"/>
<path d="M103.377 84.7588H101.595C98.3351 84.7588 95.6942 82.1152 95.6942 78.8555V75.9092H109.277V78.8555C109.277 82.1167 106.635 84.7588 103.377 84.7588Z" stroke="#244C71" stroke-width="1.61283" stroke-miterlimit="10" stroke-linecap="round" stroke-linejoin="round"/>
<path d="M133.256 76.327C133.256 67.8014 140.163 60.8911 148.685 60.8911C157.207 60.8911 164.114 67.8029 164.114 76.327C164.114 84.8511 157.207 91.7629 148.685 91.7629" stroke="#244C71" stroke-width="1.61283" stroke-miterlimit="10" stroke-linecap="round" stroke-linejoin="round"/>
<path d="M152.393 98.7635C152.393 107.289 145.484 114.199 136.964 114.199C128.442 114.199 121.535 107.288 121.535 98.7635C121.535 90.2394 128.444 83.3276 136.964 83.3276" stroke="#244C71" stroke-width="1.61283" stroke-miterlimit="10" stroke-linecap="round" stroke-linejoin="round"/>
<path d="M38.3094 81.641C35.5955 83.0754 32.3342 83.7933 28.5241 83.7933C21.8603 83.7933 16.8354 81.3946 13.4525 76.5971C10.0681 71.8012 8.37744 64.6704 8.37744 55.2032C8.37744 45.2782 10.0301 37.9998 13.337 33.3681C16.6438 28.738 21.7067 26.4214 28.5226 26.4214C35.1622 26.4214 40.1795 28.8323 43.5745 33.6556C46.9711 38.479 48.6678 45.66 48.6678 55.2032M23.3731 55.2032C23.3731 61.5141 23.7668 65.8538 24.5559 68.219C25.3435 70.5858 26.6662 71.7692 28.5241 71.7692C30.4064 71.7692 31.7352 70.5478 32.5106 68.105C33.286 65.6621 33.6737 61.362 33.6737 55.2032C33.6737 49.02 33.2784 44.6865 32.4908 42.2056C31.7018 39.7247 30.379 38.4835 28.5226 38.4835C26.6662 38.4835 25.342 39.6806 24.5544 42.0717C23.7668 44.4644 23.3731 48.8421 23.3731 55.2032Z" stroke="#244C71" stroke-width="1.61283" stroke-miterlimit="10" stroke-linecap="round" stroke-linejoin="round"/>
<path d="M72.0571 61.6912V53.4865C72.0571 49.8983 72.1331 46.6158 72.2867 43.6376C71.3456 44.7829 70.1749 45.98 68.7761 47.2258L62.4422 52.4552L54.6198 42.836L73.7752 27.2236H87.3583V57.709" stroke="#244C71" stroke-width="1.61283" stroke-miterlimit="10" stroke-linecap="round" stroke-linejoin="round"/>
<path d="M108.45 102.728H121.534" stroke="#244C71" stroke-width="1.61283" stroke-miterlimit="10" stroke-linecap="round" stroke-linejoin="round"/>
<path d="M113.03 68.1162H135.623" stroke="#244C71" stroke-width="1.61283" stroke-miterlimit="10" stroke-linecap="round" stroke-linejoin="round"/>
</svg>
