<svg width="160" height="133" viewBox="0 0 160 133" fill="none" xmlns="http://www.w3.org/2000/svg">
<path d="M47.0449 40.3216C47.0449 48.8897 45.611 55.1676 42.7458 59.1539C39.8793 63.1403 35.4905 65.1335 29.5822 65.1335C23.8057 65.1335 19.4499 63.0519 16.5174 58.8886C13.5837 54.7254 12.1182 48.5372 12.1182 40.3216C12.1182 31.7087 13.5508 25.3925 16.4173 21.3731C19.2838 17.3551 23.6725 15.3447 29.5809 15.3447C35.3363 15.3447 39.6855 17.4369 42.6285 21.6226C45.5728 25.807 47.0449 32.04 47.0449 40.3216ZM25.117 40.3216C25.117 45.7983 25.4584 49.5642 26.1424 51.6168C26.8251 53.6707 27.9717 54.6976 29.5822 54.6976C31.2138 54.6976 32.3657 53.6377 33.0378 51.5178C33.71 49.3979 34.0461 45.6663 34.0461 40.3216C34.0461 34.9558 33.7034 31.1952 33.0207 29.0423C32.3367 26.8894 31.1901 25.8123 29.5809 25.8123C27.9717 25.8123 26.8237 26.8511 26.141 28.9261C25.4584 31.0025 25.117 34.8014 25.117 40.3216Z" stroke="#244C71" stroke-width="1.47936" stroke-miterlimit="10" stroke-linecap="round" stroke-linejoin="round"/>
<path d="M51.49 60.3691L51.4452 55.8574L63.2526 43.8996C66.6265 40.366 68.8301 37.9531 69.8674 36.6621C70.9033 35.3698 71.6255 34.261 72.034 33.3331C72.4413 32.4051 72.6456 31.4336 72.6456 30.4185C72.6456 29.1593 72.237 28.1653 71.4212 27.4367C70.6054 26.708 69.4588 26.3437 67.9814 26.3437C66.4605 26.3437 64.9224 26.7806 63.3673 27.6518C61.8121 28.5244 60.054 29.8113 58.0916 31.5115L50.9141 23.0979C53.405 20.8671 55.5005 19.2712 57.198 18.3116C58.8955 17.3506 60.7419 16.6167 62.7373 16.1085C64.734 15.599 66.9784 15.3442 69.4693 15.3442C72.5994 15.3442 75.3948 15.896 77.8541 17.0008C80.312 18.1057 82.2204 19.6791 83.5766 21.7211C84.9327 23.7645 85.6101 26.056 85.6101 28.5943C85.6101 30.4938 85.3729 32.2494 84.8985 33.8611C84.424 35.4728 83.6912 37.0581 82.6988 38.6144C81.7064 40.172 80.3885 41.8114 78.7463 43.534" stroke="#244C71" stroke-width="1.47936" stroke-miterlimit="10" stroke-linecap="round" stroke-linejoin="round"/>
<path d="M78.3652 50.5449C62.6791 50.5449 49.9636 63.2802 49.9636 78.9907C49.9636 94.7013 62.6791 107.437 78.3652 107.437C94.0514 107.437 106.767 94.7013 106.767 78.9907C106.767 63.2802 94.0514 50.5449 78.3652 50.5449ZM78.3652 99.0124C67.3249 99.0124 58.3747 90.0483 58.3747 78.9907C58.3747 67.9332 67.3249 58.9691 78.3652 58.9691C89.4056 58.9691 98.3558 67.9332 98.3558 78.9907C98.3544 90.0496 89.4056 99.0124 78.3652 99.0124Z" fill="#F2F2F2"/>
<path d="M53.187 93.8959V97.8928C53.187 99.6167 52.0575 100.69 50.3363 100.69H22.0098C21.3139 100.69 21.0253 99.7989 21.5881 99.3897L27.561 95.0429C28.3676 94.4555 28.846 93.517 28.846 92.5178V87.1692V81.5632C28.846 79.8393 30.2417 78.4414 31.9629 78.4414H46.0056" stroke="#244C71" stroke-width="1.47936" stroke-miterlimit="10" stroke-linecap="round" stroke-linejoin="round"/>
<path d="M56.4023 88.2339C56.4023 90.037 54.9434 91.4982 53.1431 91.4982C51.3428 91.4982 49.8838 90.037 49.8838 88.2339" stroke="#244C71" stroke-width="1.47936" stroke-miterlimit="10" stroke-linecap="round" stroke-linejoin="round"/>
<path d="M53.5579 65.3857H52.7289C52.2597 65.3857 51.8801 65.7659 51.8801 66.2358V67.5994C51.8801 68.0693 52.2597 68.4494 52.7289 68.4494H53.5579C54.027 68.4494 54.4066 68.0693 54.4066 67.5994V66.2358C54.4066 65.7672 54.027 65.3857 53.5579 65.3857Z" stroke="#244C71" stroke-width="1.47936" stroke-miterlimit="10" stroke-linecap="round" stroke-linejoin="round"/>
<path d="M59.7614 76.4975V75.0468C59.7614 71.405 56.8132 68.4521 53.177 68.4521C49.5408 68.4521 46.5926 71.405 46.5926 75.0468V76.3747C46.5926 80.3545 45.5975 84.2722 43.6997 87.7689H62.5871L62.5436 87.6884C60.717 84.2419 59.7614 80.3994 59.7614 76.4975Z" stroke="#244C71" stroke-width="1.47936" stroke-miterlimit="10" stroke-linecap="round" stroke-linejoin="round"/>
<path d="M52.2572 71.1152C52.2572 71.1152 49.1983 72.3138 49.3314 75.9108" stroke="#244C71" stroke-width="1.47936" stroke-miterlimit="10" stroke-linecap="round" stroke-linejoin="round"/>
<path d="M34.4331 84.4375H41.0834" stroke="#244C71" stroke-width="1.47936" stroke-miterlimit="10" stroke-linecap="round" stroke-linejoin="round"/>
<path d="M34.4331 88.834H41.0834" stroke="#244C71" stroke-width="1.47936" stroke-miterlimit="10" stroke-linecap="round" stroke-linejoin="round"/>
<path d="M34.4331 93.2305H47.8669" stroke="#244C71" stroke-width="1.47936" stroke-miterlimit="10" stroke-linecap="round" stroke-linejoin="round"/>
<path d="M69.1359 109.93C63.9327 108.407 59.2698 105.614 55.5071 101.907" stroke="#244C71" stroke-width="1.47936" stroke-miterlimit="10" stroke-linecap="round" stroke-linejoin="round"/>
<path d="M62.4382 50.3612C63.6745 49.6682 64.9608 49.0544 66.2906 48.5264" stroke="#244C71" stroke-width="1.47936" stroke-miterlimit="10" stroke-linecap="round" stroke-linejoin="round"/>
<path d="M48.1504 66.5971C50.5029 60.7522 54.5042 55.7494 59.5769 52.167" stroke="#244C71" stroke-width="1.47936" stroke-miterlimit="10" stroke-linecap="round" stroke-linejoin="round"/>
<path d="M87.5627 109.93C91.3966 108.808 94.9366 106.996 98.0404 104.637" stroke="#244C71" stroke-width="1.47936" stroke-miterlimit="10" stroke-linecap="round" stroke-linejoin="round"/>
<path d="M108.549 66.5972C106.431 61.3344 102.977 56.754 98.6064 53.2798" stroke="#244C71" stroke-width="1.47936" stroke-miterlimit="10" stroke-linecap="round" stroke-linejoin="round"/>
<path d="M78.432 78.3494C80.954 78.3494 82.9985 76.3017 82.9985 73.7758C82.9985 71.2498 80.954 69.2021 78.432 69.2021C75.91 69.2021 73.8655 71.2498 73.8655 73.7758C73.8655 76.3017 75.91 78.3494 78.432 78.3494Z" fill="#17DBA7"/>
<path d="M83.0105 78.668C81.8192 80.1245 80.0093 81.0551 77.9824 81.0551C76.1152 81.0551 74.4325 80.265 73.2482 79.0012C71.276 80.1757 69.7353 81.9981 68.9182 84.1767C71.3087 86.6981 74.6875 88.2704 78.4333 88.2704C82.1792 88.2704 85.558 86.6981 87.9485 84.1775C87.0484 81.7798 85.2721 79.8134 83.0105 78.668Z" fill="#17DBA7"/>
<path d="M145.007 73.1526V96.5059C145.007 97.8615 143.911 98.9598 142.557 98.9598H109.622C108.268 98.9598 107.172 97.8615 107.172 96.5059V73.1526C107.172 71.797 108.268 70.6987 109.622 70.6987H122.415" stroke="#244C71" stroke-width="1.47936" stroke-miterlimit="10" stroke-linecap="round" stroke-linejoin="round"/>
<path d="M103.578 101.052H149.272" stroke="#244C71" stroke-width="1.47936" stroke-miterlimit="10" stroke-linecap="round" stroke-linejoin="round"/>
<path d="M119.289 83.9922L117.285 91.5069L124.788 89.5005" fill="#17DBA7"/>
<path d="M143.525 70.731L139.502 66.7017L121.7 84.5308L125.724 88.5602L143.525 70.731Z" fill="#F2F2F2"/>
<path d="M129.962 70.1418L130.803 69.2983" stroke="#244C71" stroke-width="1.47936" stroke-miterlimit="10" stroke-linecap="round" stroke-linejoin="round"/>
<path d="M125.05 89.2378L117.974 82.1495L128.232 71.876" stroke="#244C71" stroke-width="1.47936" stroke-miterlimit="10" stroke-linecap="round" stroke-linejoin="round"/>
<path d="M132.58 67.5197L141.016 59.0718L148.093 66.1588L127.296 86.9883" stroke="#244C71" stroke-width="1.47936" stroke-miterlimit="10" stroke-linecap="round" stroke-linejoin="round"/>
<path d="M136.229 63.8647L143.307 70.9531" stroke="#244C71" stroke-width="1.47936" stroke-miterlimit="10" stroke-linecap="round" stroke-linejoin="round"/>
<path d="M117.974 82.1494L115.396 91.8183L125.05 89.2378" stroke="#244C71" stroke-width="1.47936" stroke-miterlimit="10" stroke-linecap="round" stroke-linejoin="round"/>
<path d="M117.974 82.1494L115.396 91.8183L125.05 89.2378" stroke="#244C71" stroke-width="1.47936" stroke-miterlimit="10" stroke-linecap="round" stroke-linejoin="round"/>
<path d="M117.974 82.1494L115.396 91.8183L125.05 89.2378" stroke="#244C71" stroke-width="1.47936" stroke-miterlimit="10" stroke-linecap="round" stroke-linejoin="round"/>
<path d="M84 124.601H72.8634C72.1333 124.601 71.5415 124.008 71.5415 123.277V103.58C71.5415 102.849 72.1333 102.256 72.8634 102.256H84C84.7301 102.256 85.3219 102.849 85.3219 103.58V123.279C85.3219 124.008 84.7301 124.601 84 124.601Z" stroke="#244C71" stroke-width="1.47936" stroke-miterlimit="10" stroke-linecap="round" stroke-linejoin="round"/>
<path d="M75.4373 104.928H81.426" stroke="#244C71" stroke-width="1.47936" stroke-miterlimit="10" stroke-linecap="round" stroke-linejoin="round"/>
<path d="M78.431 122.715C78.6181 122.715 78.7697 122.563 78.7697 122.376C78.7697 122.189 78.6181 122.037 78.431 122.037C78.2439 122.037 78.0923 122.189 78.0923 122.376C78.0923 122.563 78.2439 122.715 78.431 122.715Z" stroke="#244C71" stroke-width="1.47936" stroke-miterlimit="10" stroke-linecap="round" stroke-linejoin="round"/>
</svg>
