<svg width="171" height="142" viewBox="0 0 171 142" fill="none" xmlns="http://www.w3.org/2000/svg">
<path d="M47.5551 55.4098C47.5551 63.7009 46.1598 69.7758 43.3717 73.6333C40.5824 77.4909 36.3118 79.4196 30.5625 79.4196C24.9415 79.4196 20.7029 77.4053 17.8495 73.3766C14.9947 69.3479 13.5686 63.3598 13.5686 55.4098C13.5686 47.0752 14.9626 40.9632 17.752 37.0738C20.5414 33.1856 24.812 31.2402 30.5612 31.2402C36.1617 31.2402 40.3939 33.2648 43.2576 37.3152C46.1226 41.3643 47.5551 47.3958 47.5551 55.4098ZM26.2175 55.4098C26.2175 60.7094 26.5497 64.3536 27.2153 66.3398C27.8796 68.3273 28.9953 69.3211 30.5625 69.3211C32.1502 69.3211 33.2711 68.2954 33.9251 66.244C34.5792 64.1926 34.9062 60.5816 34.9062 55.4098C34.9062 50.2174 34.5728 46.5783 33.9085 44.495C33.2429 42.4117 32.1271 41.3694 30.5612 41.3694C28.9953 41.3694 27.8783 42.3747 27.214 44.3826C26.5497 46.3919 26.2175 50.068 26.2175 55.4098Z" stroke="#244C71" stroke-width="1.57947" stroke-miterlimit="10" stroke-linecap="round" stroke-linejoin="round"/>
<path d="M61.5551 79.178C58.1861 78.8178 55.3006 78.054 52.8972 76.8865V66.5006C54.7645 67.3551 56.8716 68.0602 59.221 68.6158C61.5705 69.1715 63.5929 69.4487 65.2871 69.4487C67.6468 69.4487 69.4602 68.9518 70.726 67.958C71.9918 66.9643 72.6253 65.4953 72.6253 63.55C72.6253 61.7553 71.9815 60.3554 70.6939 59.3501C69.4064 58.3462 67.4544 57.8442 64.8369 57.8442C62.8414 57.8442 60.6856 58.2184 58.3682 58.9657L53.7013 56.6575L55.4711 31.9106H82.313V42.4562H66.2848L65.7052 48.6423C67.3788 48.3217 68.5689 48.1454 69.2781 48.1135C69.986 48.0816 70.6401 48.065 71.2416 48.065C73.945 48.065 76.3855 48.6896 78.5631 49.9401C80.7407 51.1906 82.4362 52.9584 83.6481 55.2448C84.86 57.5312 85.4615 60.1702 85.4666 63.1629C85.4756 68.391 84.0816 72.2217 80.7189 75.2158" stroke="#244C71" stroke-width="1.57947" stroke-miterlimit="10" stroke-linecap="round" stroke-linejoin="round"/>
<path d="M80.0242 85.5635C80.4576 86.2136 80.8373 86.9034 81.1566 87.6264" stroke="#244C71" stroke-width="1.57947" stroke-miterlimit="10" stroke-linecap="round" stroke-linejoin="round"/>
<path d="M82.3161 93.1471C82.3161 100.729 76.1449 106.876 68.5322 106.876C60.9195 106.876 54.7483 100.729 54.7483 93.1471C54.7483 85.5649 60.9195 79.4185 68.5322 79.4185C72.2565 79.4185 75.6358 80.8899 78.1173 83.2811" stroke="#244C71" stroke-width="1.57947" stroke-miterlimit="10" stroke-linecap="round" stroke-linejoin="round"/>
<path d="M68.5306 102.541C73.7393 102.541 77.9618 98.3352 77.9618 93.1473C77.9618 87.9595 73.7393 83.7539 68.5306 83.7539C63.3219 83.7539 59.0994 87.9595 59.0994 93.1473C59.0994 98.3352 63.3219 102.541 68.5306 102.541Z" fill="#F2F2F2"/>
<path d="M64.5138 95.43L64.669 94.5231L60.7383 90.7065L66.1708 89.9209L68.5998 85.0186L71.03 89.9209L72.7331 90.1675" stroke="#244C71" stroke-width="1.57947" stroke-miterlimit="10" stroke-linecap="round" stroke-linejoin="round"/>
<path d="M75.2884 90.5361L76.4632 90.706L72.5311 94.5227L73.4596 99.9117L68.6004 97.3673L63.7424 99.9117" stroke="#244C71" stroke-width="1.57947" stroke-miterlimit="10" stroke-linecap="round" stroke-linejoin="round"/>
<path d="M68.6576 107L63.2854 122.736L59.0251 118.239L52.8975 119.217L58.5557 102.632" stroke="#244C71" stroke-width="1.57947" stroke-miterlimit="10" stroke-linecap="round" stroke-linejoin="round"/>
<path d="M68.5862 107L73.9584 122.735L78.2188 118.239L84.3464 119.216L78.5971 102.45" stroke="#244C71" stroke-width="1.57947" stroke-miterlimit="10" stroke-linecap="round" stroke-linejoin="round"/>
<path d="M59.6336 106.165L55.9363 116.743L59.7452 116.136L62.3922 118.929L65.9113 108.881C65.9113 108.879 61.7984 108.706 59.6336 106.165Z" fill="#F2F2F2"/>
<path d="M77.6287 106.165L81.3261 116.743L77.5172 116.136L74.8702 118.929L71.3511 108.881C71.3511 108.879 75.4639 108.706 77.6287 106.165Z" fill="#F2F2F2"/>
<path d="M97.1821 55.3296C93.7272 55.3296 90.4274 55.9836 87.397 57.174" stroke="#244C71" stroke-width="1.57947" stroke-miterlimit="10" stroke-linecap="round" stroke-linejoin="round"/>
<path d="M82.5142 104.079C86.7219 106.844 91.7633 108.453 97.1804 108.453C111.909 108.453 123.849 96.5607 123.849 81.8906" stroke="#244C71" stroke-width="1.57947" stroke-miterlimit="10" stroke-linecap="round" stroke-linejoin="round"/>
<path d="M97.1819 50.8154V59.8921" stroke="#244C71" stroke-width="1.57947" stroke-miterlimit="10" stroke-linecap="round" stroke-linejoin="round"/>
<path d="M97.1824 103.937V113.014" stroke="#244C71" stroke-width="1.57947" stroke-miterlimit="10" stroke-linecap="round" stroke-linejoin="round"/>
<path d="M128.406 81.9131H119.292" stroke="#244C71" stroke-width="1.57947" stroke-miterlimit="10" stroke-linecap="round" stroke-linejoin="round"/>
<path d="M144.959 70.265L115.605 64.8032V47.8837L144.959 42.4219V70.265Z" stroke="#244C71" stroke-width="1.57947" stroke-miterlimit="10" stroke-linecap="round" stroke-linejoin="round"/>
<path d="M113.015 65.034H109.696C108.033 65.034 106.684 63.6903 106.684 62.0336V50.3588C106.684 48.7021 108.033 47.3584 109.696 47.3584H113.015V65.034Z" stroke="#244C71" stroke-width="1.57947" stroke-miterlimit="10" stroke-linecap="round" stroke-linejoin="round"/>
<path d="M111 67.709V77.3592H117.428V69.6199" stroke="#244C71" stroke-width="1.57947" stroke-miterlimit="10" stroke-linecap="round" stroke-linejoin="round"/>
<path d="M149.604 56.0376H157.125" stroke="#244C71" stroke-width="1.57947" stroke-miterlimit="10" stroke-linecap="round" stroke-linejoin="round"/>
<path d="M149.604 48.1073L157.125 44.3647" stroke="#244C71" stroke-width="1.57947" stroke-miterlimit="10" stroke-linecap="round" stroke-linejoin="round"/>
<path d="M149.604 63.9673L157.125 67.7098" stroke="#244C71" stroke-width="1.57947" stroke-miterlimit="10" stroke-linecap="round" stroke-linejoin="round"/>
<path d="M97.1814 81.506C99.6958 81.506 101.734 79.4758 101.734 76.9715C101.734 74.4672 99.6958 72.437 97.1814 72.437C94.667 72.437 92.6287 74.4672 92.6287 76.9715C92.6287 79.4758 94.667 81.506 97.1814 81.506Z" fill="#17DBA7"/>
<path d="M101.745 81.8213C100.557 83.2659 98.7528 84.1882 96.7316 84.1882C94.8695 84.1882 93.1933 83.4052 92.0109 82.1521C90.0448 83.3158 88.5085 85.1232 87.6941 87.2831C90.0769 89.7829 93.4459 91.3412 97.1805 91.3412C100.915 91.3412 104.283 89.7829 106.667 87.2831C105.77 84.906 103.999 82.9568 101.745 81.8213Z" fill="#17DBA7"/>
</svg>
